<svg width="96" height="96" viewBox="0 0 96 96" fill="none" xmlns="http://www.w3.org/2000/svg">
<path d="M48 74.7373C62.7666 74.7373 74.7373 62.7666 74.7373 48C74.7373 33.2334 62.7666 21.2627 48 21.2627C33.2334 21.2627 21.2627 33.2334 21.2627 48C21.2627 62.7666 33.2334 74.7373 48 74.7373Z" fill="#8B1411"/>
<path d="M48.0045 77.0018C32.0087 77.0018 18.9998 63.9914 18.9998 48.0045C18.9998 32.0176 32.0087 18.9998 48.0045 18.9998C64.0003 18.9998 77.0018 32.0087 77.0018 48.0045C77.0018 64.0003 63.9914 77.0018 48.0045 77.0018ZM48.0045 19.5968C32.3386 19.5968 19.5968 32.3386 19.5968 48.0045C19.5968 63.6704 32.3386 76.4047 48.0045 76.4047C63.6704 76.4047 76.4047 63.663 76.4047 48.0045C76.4047 32.346 63.663 19.5968 48.0045 19.5968Z" fill="#8B1310"/>
<path d="M11.775 46.4953L11.8332 46.4476C11.8571 46.3719 11.884 46.2988 11.9138 46.2281C11.9721 46.1878 12.0124 46.1565 12.0362 46.1386C12.0681 46.1158 12.1027 46.0973 12.1392 46.0833C12.2055 46.0664 12.2756 46.0727 12.3378 46.1012C12.4244 46.1311 12.9309 46.562 13.8573 47.3939C13.8907 47.325 13.9201 47.2542 13.9454 47.182C13.9601 47.136 13.9875 47.0951 14.0245 47.064C14.0633 47.0312 14.123 46.976 14.2051 46.8969C14.2387 46.8786 14.2706 46.8576 14.3007 46.8342C14.3267 46.8186 14.3574 46.8128 14.3873 46.8177C14.4373 46.8213 14.4877 46.8173 14.5365 46.8058C14.5876 46.7963 14.6403 46.8048 14.6858 46.8297C14.7172 46.8484 14.7502 46.8644 14.7843 46.8775C14.8062 46.8844 14.8287 46.8894 14.8515 46.8924V46.9357L14.9425 46.9446L14.9769 47.0163L15.159 47.1655L15.1291 47.279H15.0649C15.0593 47.3129 15.064 47.3478 15.0784 47.379H15.0157L15.05 47.4715L15.0142 47.4641L15.0067 47.4924L14.9202 47.4118C14.8937 47.3903 14.864 47.3732 14.8321 47.3611C14.8031 47.3477 14.7714 47.3416 14.7395 47.3432L14.6485 47.3521C14.6141 47.3939 14.5843 47.4298 14.5574 47.4596C14.5227 47.5127 14.5003 47.5729 14.4917 47.6357C14.4768 47.6969 14.4682 47.7594 14.4664 47.8223C14.4664 47.8611 14.4664 47.9029 14.4664 47.9507C14.8001 48.2906 15.1561 48.6077 15.5322 48.9001C15.5403 48.8793 15.5463 48.8578 15.5501 48.8359C15.5501 48.818 15.5501 48.7359 15.5501 48.5926C15.5404 48.4043 15.5185 48.2168 15.4844 48.0313C15.4476 47.8014 15.3978 47.5327 15.3351 47.2253C15.268 46.9178 15.2247 46.7297 15.2023 46.664C15.1844 46.6155 15.1709 46.5656 15.162 46.5147C15.1571 46.475 15.1496 46.4356 15.1396 46.3968L15.0799 46.2132L15.0082 46.2699C14.959 46.3535 14.9231 46.4192 14.8993 46.4625C14.8754 46.5058 14.85 46.5461 14.8261 46.5819C14.8089 46.604 14.7953 46.6287 14.7858 46.655C14.7827 46.67 14.7766 46.6842 14.7679 46.6968L14.653 46.7879L14.6171 46.7595C14.6276 46.7028 14.635 46.6595 14.638 46.6282C14.6451 46.5841 14.6587 46.5413 14.6783 46.5013C14.7199 46.3811 14.7494 46.2571 14.7664 46.1311C14.7847 45.9957 14.8187 45.863 14.8679 45.7355C14.9022 45.6654 14.947 45.5863 14.9993 45.4967C15.0253 45.4773 15.0493 45.4553 15.0709 45.431C15.0916 45.4118 15.1188 45.4012 15.147 45.4012C15.161 45.3981 15.1754 45.3982 15.1893 45.4013C15.2032 45.4044 15.2163 45.4104 15.2276 45.4191C15.2456 45.437 15.2739 45.4624 15.3112 45.4952C15.3484 45.526 15.3789 45.5641 15.4008 45.6072C15.4379 45.6652 15.4656 45.7286 15.4829 45.7952C15.5105 45.8862 15.5459 45.9746 15.5889 46.0595C15.6369 46.1572 15.6744 46.2598 15.7008 46.3655C15.7225 46.4603 15.752 46.5531 15.7889 46.6431C15.8247 46.7342 15.877 46.9088 15.9382 47.17C15.9994 47.4312 16.0576 47.6432 16.0874 47.8059C16.1175 47.9478 16.1389 48.0913 16.1516 48.2358C16.162 48.3607 16.159 48.4863 16.1427 48.6105C16.1291 48.7009 16.1216 48.7922 16.1203 48.8836C16.1246 48.9273 16.1135 48.9712 16.0889 49.0075C16.0566 49.0527 16.0267 49.0995 15.9994 49.1479C15.9516 49.1837 15.9128 49.2135 15.8844 49.2374C15.8198 49.2757 15.7499 49.3044 15.677 49.3225C15.5899 49.351 15.5005 49.372 15.4098 49.3852C15.3587 49.3947 15.306 49.3862 15.2605 49.3613C15.2076 49.3268 15.1528 49.2954 15.0963 49.2673C14.9799 49.118 14.8619 48.9822 14.7425 48.8433L14.4738 48.6015L14.4186 48.5224L14.3619 48.4941V48.5329C14.3517 48.5836 14.3377 48.6335 14.3201 48.6821C14.2953 48.7644 14.2633 48.8443 14.2246 48.921C14.1842 48.9953 14.1288 49.0604 14.0618 49.112C13.9902 49.1702 13.9514 49.2091 13.9469 49.227C13.9405 49.2498 13.9304 49.2715 13.9171 49.2912V49.2703L13.8603 49.2822C13.8702 49.2476 13.8767 49.2121 13.8797 49.1762C13.8758 49.076 13.8643 48.9762 13.8454 48.8777C13.8187 48.6949 13.8087 48.51 13.8156 48.3254C13.8257 48.2097 13.8257 48.0933 13.8156 47.9776C13.8085 47.9554 13.7968 47.9351 13.7812 47.9179C13.2637 47.4989 12.7343 47.0889 12.193 46.6879C12.1928 46.7012 12.1903 46.7143 12.1855 46.7267C12.2075 46.8289 12.239 46.9288 12.2796 47.0252C12.3467 47.2133 12.4064 47.3656 12.4557 47.482C12.509 47.6052 12.5554 47.7313 12.5945 47.8597C12.6367 47.99 12.6642 48.1247 12.6766 48.2612C12.6896 48.3678 12.6896 48.4755 12.6766 48.5821C12.6696 48.6458 12.652 48.7079 12.6244 48.7657C12.602 48.806 12.5721 48.8568 12.5333 48.915C12.4467 48.9807 12.384 49.0344 12.3318 49.0792C12.2973 49.1128 12.2587 49.1419 12.2169 49.1658C12.2318 49.1419 12.2572 49.0956 12.2945 49.0255C12.3334 48.9398 12.3518 48.8463 12.3482 48.7523C12.3434 48.6055 12.3245 48.4595 12.2915 48.3164C12.2386 48.0816 12.1728 47.8499 12.0945 47.6223C11.9989 47.3402 11.9362 47.1297 11.9034 46.9894C11.8847 46.9002 11.8598 46.8124 11.8288 46.7267C11.8138 46.6909 11.7959 46.6461 11.778 46.5938L11.775 46.4953Z" fill="#8B1411"/>
<path d="M14.665 32.1639C14.7097 32.1057 14.7411 32.0639 14.7575 32.0385C14.767 32.0191 14.782 32.0029 14.8008 31.9922C14.8193 31.9829 14.8373 31.9724 14.8545 31.9609C14.9045 31.9634 14.9545 31.9604 15.0038 31.9519C15.0289 31.9505 15.054 31.9548 15.0772 31.9643C15.1005 31.9739 15.1213 31.9885 15.1382 32.0071C15.1928 32.0528 15.2375 32.1092 15.2695 32.1728C15.3053 32.24 15.3695 32.3505 15.4606 32.5042L15.4979 32.5983L15.786 33.2804V33.3446L15.8427 33.4237L15.9666 33.7939L16.0502 33.9939C16.0502 34.0402 16.0502 34.076 16.0502 34.0999C16.0551 34.1324 16.0631 34.1644 16.0741 34.1955C16.0895 34.2417 16.101 34.2891 16.1084 34.3373C16.1249 34.4186 16.1494 34.4981 16.1816 34.5746C16.2118 34.6478 16.2382 34.7226 16.2607 34.7985C16.2741 34.8463 16.2935 34.909 16.3219 34.9881C16.3502 35.0672 16.4383 35.2583 16.5502 35.5135L16.7727 36.021C16.7727 35.9688 16.7727 35.9225 16.7727 35.8837C16.7727 35.8449 16.7279 35.6165 16.6413 35.1985C16.5675 34.8724 16.5147 34.5418 16.4831 34.2089C16.4667 33.9919 16.4617 33.7741 16.4681 33.5566C16.4757 33.3618 16.5002 33.168 16.5413 32.9774C16.5697 32.8339 16.6087 32.6928 16.6577 32.555C16.6906 32.4669 16.7204 32.4176 16.7458 32.4057C16.7772 32.3912 16.8076 32.3748 16.8368 32.3564L16.9563 32.3311C17.0062 32.3274 17.0559 32.3399 17.0981 32.3669C17.1711 32.4019 17.2381 32.4483 17.2966 32.5042C17.3666 32.5672 17.4287 32.6383 17.4817 32.7162C17.5384 32.7983 17.5892 32.8804 17.631 32.961C17.6558 33.0092 17.6832 33.056 17.7131 33.1013C17.7249 33.1186 17.7349 33.1371 17.7429 33.1565L17.9191 33.0714C17.9776 33.0772 18.0366 33.0772 18.0952 33.0714C18.1157 33.0684 18.1367 33.0702 18.1563 33.0766C18.176 33.0831 18.194 33.0941 18.2086 33.1088C18.2436 33.136 18.2739 33.1688 18.2982 33.2058C18.3176 33.2386 18.3505 33.2879 18.3982 33.3551C18.44 33.461 18.4699 33.5387 18.4863 33.5864C18.5065 33.6459 18.52 33.7075 18.5266 33.77C18.5355 33.8447 18.54 33.9193 18.543 34.0133C18.5482 34.0432 18.5473 34.0738 18.5403 34.1033C18.5334 34.1328 18.5206 34.1606 18.5027 34.185C18.4882 34.1977 18.4769 34.2137 18.4696 34.2315C18.4624 34.2494 18.4594 34.2688 18.4609 34.288C18.4645 34.3244 18.4578 34.3612 18.4415 34.394C18.4211 34.4367 18.4032 34.4806 18.3878 34.5253H18.3564C18.2943 34.647 18.2011 34.75 18.0862 34.8239C18.0178 34.8577 17.9399 34.8672 17.8653 34.8507C17.8806 34.838 17.8937 34.8229 17.9041 34.806C17.9146 34.7895 17.9385 34.7418 17.9773 34.6642C18.0167 34.5887 18.0424 34.5068 18.0534 34.4223C18.0621 34.3574 18.0621 34.2917 18.0534 34.2268C18.0454 34.18 18.032 34.1188 18.0131 34.0432C17.9818 34.0466 17.9503 34.0466 17.9191 34.0432L17.7907 34.0342C17.7516 34.0326 17.7124 34.0361 17.6743 34.0447C17.6325 33.9999 17.6026 33.9671 17.5862 33.9447C17.5648 33.9176 17.5356 33.8978 17.5026 33.888C17.4693 33.8768 17.4395 33.8573 17.416 33.8312C17.3981 33.8073 17.3742 33.7715 17.3444 33.7223C17.3145 33.673 17.3265 33.6611 17.3205 33.6446C17.3145 33.6282 17.3205 33.6103 17.3339 33.5864C17.3474 33.5625 17.3339 33.4984 17.3085 33.3969C17.2832 33.2953 17.2309 33.1744 17.1742 33.0356C17.1205 32.9565 17.0831 32.8968 17.0622 32.8595C17.0394 32.8201 17.0101 32.7848 16.9757 32.755C16.9538 32.7322 16.9266 32.7153 16.8966 32.7057C16.8744 32.7013 16.8529 32.6943 16.8324 32.6848L16.7383 32.7863C16.7014 32.8394 16.677 32.9001 16.6667 32.964C16.6431 33.0677 16.637 33.1747 16.6488 33.2804C16.6607 33.3805 16.6525 33.482 16.6249 33.579C16.5968 33.7034 16.5918 33.8319 16.61 33.9581C16.6249 34.1283 16.6473 34.288 16.6756 34.4403C16.704 34.5925 16.7309 34.706 16.7533 34.7836C16.7756 34.8612 16.807 34.9717 16.8473 35.1179L16.8906 35.2299L17.2548 36.1434L17.2966 36.2076C17.3354 36.3569 17.3638 36.4703 17.3787 36.5569C17.3936 36.6435 17.41 36.7495 17.4235 36.8704C17.4394 36.9665 17.4307 37.0651 17.3981 37.157C17.384 37.1991 17.3628 37.2385 17.3354 37.2734C17.32 37.2853 17.3056 37.2982 17.2921 37.3122H17.2309C17.1919 37.314 17.153 37.318 17.1145 37.3242C17.0518 37.3316 16.9906 37.3376 16.9294 37.3391C16.8733 37.3417 16.8174 37.3304 16.7667 37.3062C16.7174 37.2824 16.6906 37.26 16.6876 37.2406C16.6815 37.2173 16.6708 37.1955 16.6562 37.1764C16.6705 37.1638 16.6835 37.1498 16.695 37.1346C16.7065 37.1117 16.7155 37.0877 16.7219 37.0629C16.7344 36.9938 16.7344 36.9231 16.7219 36.854C16.708 36.7544 16.6856 36.6141 16.6547 36.433C16.5827 36.1166 16.491 35.805 16.3801 35.5001C16.0368 34.7318 15.7969 34.2029 15.6606 33.9133C15.5233 33.6218 15.362 33.3423 15.1785 33.0774C14.9963 32.8162 14.8799 32.6624 14.8486 32.6206C14.8172 32.5789 14.7695 32.5266 14.7232 32.4714C14.7083 32.5415 14.6918 32.6057 14.6754 32.6624C14.6501 32.7772 14.6361 32.8942 14.6336 33.0117C14.6247 33.1335 14.6247 33.2557 14.6336 33.3774C14.6426 33.4461 14.656 33.5267 14.6739 33.6312L14.9023 34.0253V34.0507C14.9236 34.0692 14.9466 34.0857 14.971 34.0999C14.9937 34.1121 15.0177 34.1216 15.0426 34.1283C15.0725 34.1283 15.0889 34.1462 15.0904 34.1596C15.094 34.1782 15.1011 34.1959 15.1113 34.2119C15.0977 34.2353 15.0806 34.2564 15.0605 34.2746C15.0393 34.2912 15.0169 34.3062 14.9934 34.3193C14.9634 34.3382 14.9388 34.3644 14.9217 34.3955C14.9072 34.4226 14.8874 34.4464 14.8635 34.4656C14.8389 34.4827 14.8129 34.4977 14.7859 34.5104C14.7262 34.5194 14.6784 34.5283 14.6441 34.5358C14.5774 34.5458 14.5099 34.5488 14.4426 34.5447C14.3576 34.5443 14.2732 34.5317 14.1918 34.5074C14.1406 34.4944 14.0932 34.4699 14.053 34.4358C14.0291 34.4089 13.9903 34.3686 13.9365 34.3149H14.0724L14.2963 34.2119L14.5426 34.1253C14.5306 34.0118 14.5217 33.9223 14.5142 33.8551C14.5067 33.7879 14.4993 33.667 14.4888 33.4909C14.4785 33.2849 14.4885 33.0784 14.5187 32.8744C14.5436 32.7405 14.5556 32.6046 14.5545 32.4684C14.547 32.4341 14.5381 32.3997 14.5276 32.3639L14.6097 32.246L14.5978 32.1863L14.665 32.1639ZM17.4309 35.3732C17.4905 35.4047 17.5524 35.4317 17.616 35.4538C17.7321 35.4978 17.8565 35.5156 17.9803 35.506C18.0729 35.5033 18.1653 35.4933 18.2564 35.4762L18.449 35.4329C18.5563 35.3647 18.6563 35.2857 18.7475 35.1971C18.8863 35.075 19.0025 34.9295 19.0908 34.7672C19.174 34.6118 19.2459 34.4507 19.3058 34.285C19.3655 34.1208 19.4177 33.9506 19.464 33.7745C19.5083 33.6116 19.5353 33.4445 19.5446 33.2759C19.5574 33.1715 19.5472 33.0655 19.5148 32.9655C19.4879 32.9147 19.4804 32.8819 19.4924 32.8669C19.5069 32.8479 19.5184 32.8267 19.5267 32.8042C19.5477 32.8103 19.5692 32.8148 19.5909 32.8177C19.6058 32.8177 19.6237 32.8356 19.6446 32.8714C19.6622 32.9034 19.6873 32.9306 19.7178 32.9505C19.7437 32.966 19.7665 32.9863 19.7849 33.0102C19.7999 33.0326 19.8297 33.0714 19.873 33.1267C19.8921 33.1723 19.9061 33.2198 19.9148 33.2685C19.9285 33.3334 19.947 33.3973 19.97 33.4595C20.0012 33.6228 20.0012 33.7904 19.97 33.9536C19.9447 34.1954 19.9253 34.3402 19.9148 34.3895C19.9054 34.4328 19.9054 34.4776 19.9148 34.5209C19.9141 34.5983 19.9 34.6751 19.873 34.7478C19.8351 34.8665 19.7851 34.9811 19.7237 35.0896C19.6551 35.2181 19.5692 35.3366 19.4685 35.4419C19.3837 35.5381 19.2925 35.6283 19.1953 35.712C19.1362 35.7619 19.0728 35.8063 19.0057 35.8449C18.955 35.8718 18.8923 35.9016 18.8147 35.9345L18.5594 35.9703L18.5102 35.9942L18.4057 36.0031C18.3431 35.9991 18.2816 35.985 18.2236 35.9613C18.1372 35.933 18.0533 35.8975 17.9728 35.8553C17.9048 35.8202 17.8463 35.7689 17.8026 35.7061C17.7684 35.6477 17.7227 35.5969 17.6683 35.5568C17.6205 35.5254 17.5414 35.4657 17.4309 35.3732Z" fill="#8B1411"/>
<path d="M22.8883 24.0361L23.2286 24.0839L23.7346 24.2555L23.8988 24.2854L23.8824 24.3496L24.1541 24.4989L24.0675 24.1809C24.08 24.1953 24.094 24.2083 24.1093 24.2197C24.1236 24.2351 24.1343 24.2534 24.1406 24.2735C24.1506 24.3004 24.167 24.3245 24.1884 24.3436L24.2765 24.4212L24.366 24.4332C24.4287 24.4989 24.4735 24.5451 24.5034 24.572C24.5321 24.598 24.5546 24.6301 24.569 24.666C24.5825 24.7019 24.6093 24.766 24.6467 24.8616C24.6449 24.9377 24.6374 25.0135 24.6243 25.0885C24.6124 25.1449 24.6069 25.2025 24.6079 25.2601L24.6661 25.3527C24.6327 25.3609 24.5988 25.3669 24.5646 25.3706V25.4199C24.5243 25.4199 24.4929 25.4288 24.4675 25.4303C24.4432 25.4311 24.4195 25.4383 24.3989 25.4512L24.2929 25.5139C24.1869 25.4781 24.1033 25.4497 24.0436 25.4273C23.9372 25.385 23.8339 25.3351 23.7346 25.278C23.5824 25.1898 23.4372 25.09 23.3002 24.9795C23.1832 24.8897 23.0744 24.7898 22.9748 24.681C22.9065 24.605 22.8487 24.5202 22.8032 24.4287C22.7738 24.3727 22.7493 24.3143 22.73 24.2541C22.7196 24.2212 22.7061 24.1779 22.6882 24.1242L22.7166 23.9585L22.8883 24.0361ZM24.6422 21.2582C24.6584 21.2436 24.6734 21.2276 24.687 21.2104C24.7136 21.1866 24.7426 21.1656 24.7735 21.1477C24.8228 21.1179 24.9004 21.0731 25.0094 21.0164L25.2139 21.0462L25.3348 21.0089C25.4001 21.0339 25.4676 21.0529 25.5363 21.0656C25.5598 21.0698 25.582 21.0796 25.601 21.0942C25.6199 21.1087 25.6351 21.1276 25.6453 21.1492C25.6556 21.171 25.6701 21.1906 25.6881 21.2067C25.706 21.2229 25.727 21.2353 25.7498 21.2433C25.8054 21.2704 25.8501 21.3157 25.8766 21.3716C25.9146 21.4336 25.9428 21.5011 25.9602 21.5717C25.9866 21.6734 26.02 21.7731 26.0603 21.8702V21.9448L26.0811 22.1105C26.0811 22.2598 26.0811 22.3568 26.0811 22.421C26.0811 22.4852 26.0811 22.524 26.0453 22.5374C26.0095 22.5509 26.008 22.5822 26.0185 22.627C26.0264 22.6795 26.0135 22.7331 25.9826 22.7763C25.9548 22.8156 25.9355 22.8604 25.9259 22.9076C25.9259 22.939 25.9259 22.9853 25.911 23.045H25.9767C26.0093 23.0758 26.0436 23.1047 26.0797 23.1315L26.2439 23.2689C26.2923 23.3079 26.3289 23.3596 26.3498 23.4181C26.3648 23.4519 26.372 23.4887 26.3707 23.5256C26.3679 23.5757 26.3719 23.6259 26.3827 23.6749C26.3348 23.7132 26.2894 23.7546 26.2468 23.7988C26.2065 23.8391 25.8811 23.8973 25.2676 23.9734L25.1184 23.96C25.137 23.955 25.1535 23.9442 25.1656 23.9291C25.1776 23.9141 25.1846 23.8956 25.1855 23.8764L25.1512 23.8406C25.2109 23.6913 25.2572 23.5973 25.2885 23.542C25.3173 23.4894 25.3375 23.4324 25.3482 23.3734C25.3482 23.3196 25.3661 23.239 25.3781 23.1286C25.3868 22.7823 25.3558 22.4362 25.2855 22.0971C25.2588 22.0025 25.2233 21.9105 25.1796 21.8224C25.1593 21.793 25.1363 21.7655 25.1109 21.7403L24.987 21.8777C24.9091 21.9839 24.8397 22.0963 24.7795 22.2135C24.678 22.3941 24.587 22.5748 24.5078 22.7554C24.4385 22.8948 24.3998 23.0475 24.3944 23.2032C24.402 23.2439 24.401 23.2858 24.3915 23.3262C24.3819 23.3665 24.3641 23.4045 24.3392 23.4375C24.3045 23.473 24.2605 23.4978 24.2123 23.5092C24.169 23.5181 24.1421 23.5286 24.1347 23.5405L24.0899 23.5973L23.8451 23.6062L23.6197 23.5764H23.4704C23.5037 23.489 23.5452 23.4051 23.5943 23.3256C23.6364 23.2537 23.6652 23.1748 23.6794 23.0927C23.7226 22.9302 23.7791 22.7714 23.8481 22.618C23.9376 22.4101 24.0371 22.2046 24.1466 22.0016C24.2206 21.8523 24.307 21.7095 24.4048 21.5746C24.4705 21.4811 24.5496 21.3756 24.6422 21.2582Z" fill="#8B1411"/>
<path d="M32.9759 14.7171C32.9993 14.7234 33.0218 14.7325 33.0431 14.744C33.0548 14.7494 33.0675 14.7522 33.0804 14.7522C33.0933 14.7522 33.106 14.7494 33.1177 14.744C33.1583 14.7298 33.2003 14.7203 33.2431 14.7157C33.3067 14.7023 33.3656 14.6718 33.4132 14.6276C33.4429 14.602 33.4777 14.5831 33.5153 14.572C33.5529 14.561 33.5924 14.558 33.6312 14.5634L33.9655 14.5947C33.9861 14.6245 34.0119 14.6503 34.0417 14.6709C34.0723 14.6941 34.1008 14.7201 34.1268 14.7485C34.1656 14.7873 34.1909 14.8142 34.2074 14.8276L34.1895 14.9022L34.0999 15.0515L34.0894 15.0844C34.0402 15.1142 34.0014 15.1351 33.97 15.15C33.9145 15.1668 33.8561 15.1724 33.7984 15.1664C33.7202 15.1647 33.643 15.1496 33.57 15.1217C33.5013 15.0948 33.3998 15.05 33.2714 14.9903L32.9729 14.7634L32.9759 14.7171ZM34.8343 14.7783C34.8343 14.8455 34.8179 15.059 34.785 15.4232C34.7522 15.7874 34.7149 16.0919 34.6701 16.3397C34.6253 16.5875 34.6552 16.7607 34.7597 16.8622C34.8587 16.9559 34.9379 17.0686 34.9925 17.1935C35.0433 17.313 35.0985 17.4383 35.1582 17.5667C35.2154 17.6902 35.2628 17.818 35.3 17.9489C35.3285 18.0435 35.3514 18.1397 35.3687 18.2369C35.3775 18.2918 35.3775 18.3478 35.3687 18.4026C35.3583 18.4573 35.3528 18.5127 35.3523 18.5683C35.3533 18.6189 35.3462 18.6693 35.3314 18.7176C35.3163 18.7597 35.3033 18.8025 35.2926 18.846C35.2582 18.8848 35.2179 18.9325 35.1761 18.9863C35.1399 19.0328 35.0989 19.0753 35.0537 19.1132C35.0235 19.1395 34.9849 19.1543 34.9448 19.155C34.8998 19.1555 34.8564 19.1719 34.8224 19.2012C34.7652 19.2383 34.7021 19.265 34.6358 19.2803C34.6043 19.2856 34.5745 19.298 34.5486 19.3166C34.5227 19.3353 34.5014 19.3596 34.4865 19.3878C34.4774 19.4102 34.463 19.4301 34.4445 19.4457C34.4261 19.4613 34.4041 19.4721 34.3805 19.4774C34.3291 19.4821 34.2774 19.4722 34.2312 19.449C34.173 19.4236 34.082 19.3863 33.9566 19.3371L33.8402 19.2684L33.7596 19.2385C33.7267 19.1908 33.6998 19.155 33.6804 19.1296C33.6513 19.0785 33.6326 19.0222 33.6252 18.9639C33.6072 18.8687 33.6072 18.771 33.6252 18.6758C33.6396 18.578 33.6606 18.4812 33.6879 18.3862C33.7133 18.3011 33.7521 18.1608 33.8028 17.9638L33.8387 17.8966V17.8608L33.87 17.8264L34.0939 17.104C34.076 17.08 34.0609 17.0539 34.0491 17.0264C34.0363 16.9991 34.0168 16.9754 33.9924 16.9577C33.9626 16.9308 33.9073 16.8801 33.8282 16.8084L33.6789 16.7875C33.5118 16.695 33.3953 16.6383 33.3267 16.6009C33.2662 16.5729 33.2107 16.535 33.1625 16.489C33.1217 16.4462 33.0605 16.385 32.9789 16.3054C32.9961 16.3087 33.0139 16.3087 33.0311 16.3054L33.0938 16.2815C33.1167 16.2716 33.1408 16.2645 33.1655 16.2606L33.1744 16.2263C33.191 16.2178 33.2057 16.2061 33.2177 16.1919C33.2267 16.18 33.255 16.1785 33.3028 16.1919C33.3469 16.1988 33.392 16.1909 33.4312 16.1695C33.4505 16.1587 33.472 16.152 33.4941 16.1499C33.5162 16.1479 33.5385 16.1505 33.5595 16.1576C33.5962 16.1714 33.6356 16.176 33.6745 16.171C33.6986 16.1626 33.7249 16.1626 33.7491 16.171C33.7652 16.1792 33.7834 16.1824 33.8014 16.18L33.8655 16.1681C33.8847 16.1862 33.9057 16.2022 33.9282 16.2158L34.0267 16.2651C34.0745 16.2875 34.1551 16.3323 34.2716 16.3994L34.6686 15.156L34.7597 14.9769L34.8343 14.7783ZM34.5955 17.913C34.4895 18.3773 34.4328 18.643 34.4223 18.7101C34.4119 18.7773 34.4029 18.8594 34.3925 18.9684L34.4298 19.0072L34.4626 18.9937C34.4872 18.9798 34.5102 18.9633 34.5313 18.9445C34.5678 18.9167 34.6013 18.8852 34.6313 18.8504C34.6611 18.8161 34.7015 18.7639 34.7507 18.7012C34.7716 18.637 34.7865 18.5877 34.7955 18.5519C34.8031 18.4925 34.799 18.4321 34.7835 18.3743C34.7717 18.3043 34.7485 18.2367 34.7149 18.1742C34.672 18.0935 34.6351 18.0096 34.6044 17.9235L34.5955 17.913ZM34.7328 13.3185C34.7629 13.3361 34.797 13.346 34.8319 13.3473C34.8668 13.3486 34.9014 13.3413 34.9328 13.3259L35.0702 13.3871L35.2045 13.4185C35.2122 13.4313 35.2217 13.4429 35.2329 13.4528C35.2487 13.4654 35.2663 13.4754 35.2851 13.4827C35.3369 13.5073 35.3868 13.5357 35.4344 13.5678H35.4851L35.6762 13.7902H35.6448L35.6269 13.8812H35.6583L35.6732 14.0201C35.6874 14.0187 35.7014 14.0156 35.715 14.0111C35.7578 13.9757 35.7955 13.9345 35.827 13.8887C35.8806 13.8209 35.9406 13.7585 36.0061 13.7021C36.0524 13.6663 36.0958 13.6268 36.1359 13.5842C36.2117 13.5888 36.2878 13.5853 36.3628 13.5737C36.4344 13.5614 36.5077 13.5614 36.5793 13.5737C36.5987 13.623 36.6136 13.6603 36.6255 13.6857C36.6406 13.7267 36.6472 13.7704 36.645 13.8141C36.6422 13.899 36.6313 13.9835 36.6121 14.0663C36.5897 14.1738 36.5688 14.2619 36.5479 14.3335C36.5291 14.3922 36.5166 14.4528 36.5106 14.5141C36.5048 14.5713 36.4917 14.6275 36.4718 14.6813C36.4494 14.7425 36.4121 14.8664 36.3569 15.0545C36.427 15.0679 36.4808 15.0799 36.5061 15.0888C36.5457 15.0993 36.5874 15.0993 36.627 15.0888C36.6826 15.0754 36.734 15.0482 36.7763 15.0097C36.8296 14.9664 36.8883 14.9302 36.951 14.9022C37.0181 14.8709 37.0659 14.8634 37.1002 14.8784C37.1346 14.8933 37.1659 14.9082 37.2122 14.9261C37.2215 14.9404 37.232 14.9539 37.2435 14.9664C37.247 14.9693 37.2497 14.973 37.2512 14.9772C37.2528 14.9814 37.2532 14.9859 37.2525 14.9903C37.2504 15.0037 37.2504 15.0173 37.2525 15.0306L37.2868 15.0635L37.2674 15.1694L37.2226 15.2545L37.2435 15.2694L37.1973 15.3635L37.1077 15.5665L36.8763 16.0143C37.022 16.1664 37.189 16.2966 37.3719 16.4009C37.3719 16.2098 37.3719 16.0755 37.3719 16.0009C37.3794 15.9293 37.3712 15.857 37.348 15.7889C37.3358 15.7415 37.3128 15.6976 37.2808 15.6605C37.2647 15.6477 37.251 15.632 37.2405 15.6143C37.342 15.6814 37.4122 15.7277 37.451 15.7501C37.4922 15.7747 37.5294 15.8054 37.5615 15.8412C37.6023 15.8899 37.6342 15.9455 37.6555 16.0053C37.6833 16.0804 37.7019 16.1586 37.7107 16.2382C37.7182 16.3218 37.7406 16.4666 37.7749 16.6771C38.0763 16.8962 38.3893 17.099 38.7123 17.2846C38.9114 17.3891 39.2905 17.5881 39.8498 17.8817L39.8423 17.922C39.8458 17.927 39.8502 17.9313 39.8553 17.9347C39.8604 17.938 39.8662 17.9403 39.8722 17.9414C39.8826 17.9414 39.8901 17.9503 39.8931 17.9668C39.9026 17.9926 39.9192 18.0154 39.9408 18.0324C39.9623 18.0516 39.9809 18.0737 39.9961 18.0981L40.0364 18.1742C39.9578 18.2041 39.8936 18.231 39.8438 18.2549C39.7746 18.2843 39.7019 18.3043 39.6274 18.3146C39.5534 18.3331 39.476 18.3331 39.402 18.3146L39.1811 18.2399L38.5123 17.8817L37.854 17.404L37.7048 17.7384C37.6749 17.7802 37.6525 17.8115 37.6346 17.8339C37.6167 17.8563 37.5928 17.8921 37.5585 17.9429C37.5246 17.9971 37.4845 18.0472 37.4391 18.0922C37.4042 18.1299 37.3645 18.163 37.3211 18.1907L37.1838 18.2847C37.1726 18.284 37.1619 18.2804 37.1525 18.2743C37.1435 18.2743 37.1196 18.2743 37.0823 18.2743C37.0469 18.2816 37.0103 18.2816 36.9748 18.2743L36.8256 18.2519C36.8099 18.2307 36.7999 18.2059 36.7962 18.1799C36.7926 18.1538 36.7955 18.1273 36.8047 18.1026C36.8255 18.1043 36.8465 18.1043 36.8674 18.1026C36.8854 18.1018 36.9031 18.0978 36.9196 18.0907C36.9495 18.0776 36.978 18.0616 37.0047 18.0429C37.1749 17.5637 37.2659 17.2965 37.2808 17.2279C37.2958 17.1592 37.3092 17.0786 37.3256 16.9801L37.1659 16.8308C37.1226 16.7905 36.9554 16.6278 36.6629 16.3397C36.5987 16.4352 36.5494 16.5054 36.5136 16.5487C36.4819 16.5894 36.4453 16.626 36.4046 16.6577C36.3593 16.6947 36.3178 16.7362 36.2807 16.7816C36.2282 16.8432 36.1718 16.9015 36.1121 16.9562C36.052 17.0183 35.9854 17.0739 35.9135 17.1219C35.8549 17.1605 35.7866 17.1817 35.7165 17.1831C35.6706 17.183 35.625 17.177 35.5807 17.1652L35.4672 17.1264C35.4427 17.1006 35.4168 17.0762 35.3896 17.0532C35.3603 17.0127 35.34 16.9664 35.3299 16.9174C35.3158 16.8623 35.2989 16.808 35.2791 16.7547C35.2724 16.7415 35.269 16.7269 35.269 16.7121C35.269 16.6974 35.2724 16.6828 35.2791 16.6696C35.2964 16.6393 35.3104 16.6073 35.3209 16.5741L35.4329 16.4711C35.4747 16.3218 35.5105 16.2113 35.5418 16.1188C35.5732 16.0262 35.6284 15.8456 35.709 15.5769C35.7896 15.3083 35.8195 15.1515 35.7926 15.1082C35.7737 15.0822 35.7586 15.0535 35.7478 15.0231C35.743 15.0027 35.7366 14.9828 35.7284 14.9634L35.8284 14.947C35.8613 14.7978 35.8882 14.6828 35.9076 14.6171C35.9219 14.5824 35.9309 14.5456 35.9344 14.5082L35.9255 14.4858C35.8687 14.5738 35.8225 14.635 35.7896 14.6858C35.7521 14.7359 35.7079 14.7806 35.6583 14.8186C35.6121 14.8575 35.5621 14.8915 35.509 14.9202C35.4664 14.9412 35.4219 14.9582 35.3762 14.9709C35.3423 14.9823 35.3056 14.9823 35.2717 14.9709L35.1433 14.9142C35.094 14.8769 35.0567 14.85 35.0298 14.8321C34.9875 14.7975 34.9512 14.7561 34.9224 14.7097C34.8668 14.6179 34.8283 14.5167 34.8089 14.4111C34.7763 14.2541 34.7622 14.0938 34.7671 13.9335C34.7722 13.8039 34.7667 13.6741 34.7507 13.5454C34.7406 13.4962 34.7347 13.4463 34.7328 13.3961C34.7298 13.3737 34.7313 13.3483 34.7328 13.3274V13.3185ZM36.1121 15.6337L36.0673 15.7352L36.015 15.8382L35.9464 16.0158L35.6657 16.6129L35.6777 16.6457L35.7643 16.6024C35.818 16.5662 35.868 16.5247 35.9135 16.4785C36.0655 16.3016 36.2019 16.1118 36.321 15.9113L36.127 15.6441L36.1121 15.6337ZM36.2195 15.3814L36.2598 15.456C36.275 15.4788 36.2942 15.4985 36.3166 15.5142C36.3695 15.5607 36.4194 15.6106 36.4658 15.6635L36.7226 15.2844L36.3121 15.1829L36.2195 15.3814ZM37.148 13.9708C37.19 13.9831 37.2314 13.9976 37.2719 14.0141C37.2848 14.0199 37.2988 14.0229 37.3129 14.0229C37.3271 14.0229 37.3411 14.0199 37.354 14.0141C37.3939 13.9982 37.4364 13.9896 37.4794 13.9887C37.5391 13.9867 37.5985 13.999 37.6525 14.0245C37.7137 14.0514 37.8182 14.0932 37.966 14.1469V14.1723L37.9152 14.1604L37.8973 14.1917L38.0033 14.4037L37.9824 14.4276V14.4753C37.9152 14.5007 37.866 14.5201 37.8331 14.535C37.801 14.5476 37.7653 14.5476 37.7331 14.535C37.6988 14.5261 37.6466 14.5141 37.5839 14.5007L37.4585 14.4007C37.4048 14.355 37.3549 14.3051 37.3092 14.2514C37.2603 14.2005 37.2163 14.145 37.1778 14.0857C37.1555 14.0484 37.1271 13.9962 37.0913 13.9365L37.148 13.9708Z" fill="#8B1411"/>
<path d="M50.3929 10.9331C50.4832 10.9528 50.5751 10.9647 50.6675 10.9689C50.7534 10.9747 50.8384 10.9892 50.9213 11.0122C50.9949 11.0283 51.0648 11.0582 51.1273 11.1003C51.1661 11.1331 51.2228 11.1749 51.2974 11.2302C51.3341 11.2753 51.3741 11.3177 51.4169 11.357C51.4478 11.3908 51.4667 11.4338 51.4706 11.4794C51.479 11.5493 51.4744 11.6202 51.4572 11.6884C51.4376 11.7672 51.4064 11.8427 51.3646 11.9123C51.331 11.9684 51.2887 12.0188 51.2392 12.0616C51.1989 12.0959 51.1362 12.1571 51.0526 12.2437C50.9691 12.3303 50.8825 12.3721 50.8466 12.393C50.8113 12.417 50.7726 12.4356 50.7317 12.4482C50.6725 12.472 50.6168 12.5037 50.566 12.5422C50.4712 12.6063 50.3713 12.6627 50.2675 12.7109C50.1755 12.7589 50.0797 12.7988 49.9809 12.8303C49.9226 12.8445 49.866 12.865 49.8122 12.8915C49.7644 12.9169 49.6734 12.9572 49.539 13.0139C49.5342 13.0215 49.5316 13.0303 49.5316 13.0393C49.5316 13.0468 49.5316 13.0542 49.5405 13.0647C49.5522 13.0826 49.5622 13.1016 49.5704 13.1214C49.6067 13.1032 49.6454 13.0901 49.6853 13.0826C49.7135 13.1064 49.744 13.1274 49.7764 13.1453C49.8156 13.1658 49.8566 13.1827 49.8988 13.196C49.9529 13.2146 50.0034 13.2423 50.0481 13.2781C50.0817 13.3194 50.1181 13.3583 50.157 13.3946C50.1809 13.414 50.1914 13.4304 50.1914 13.4423C50.1914 13.4543 50.1914 13.4692 50.1914 13.4886L49.8734 13.7125L49.8585 13.7469L50.0286 13.9439C50.0613 13.9778 50.0898 14.0154 50.1137 14.0558C50.2017 14.1698 50.2969 14.278 50.3988 14.3798C50.5586 14.5499 50.6392 14.6604 50.6392 14.7096C50.6408 14.7567 50.6322 14.8036 50.6138 14.847C50.5953 14.8896 50.5659 14.9266 50.5287 14.9545C50.4596 15.0114 50.3939 15.0722 50.3317 15.1366C50.2516 15.1904 50.1689 15.2402 50.0839 15.2858C50.0227 15.3172 49.9525 15.35 49.8719 15.3843C49.7913 15.4187 49.6585 15.4844 49.4763 15.5784C49.4569 16.2009 49.4301 16.5412 49.3942 16.5964C49.3584 16.6517 49.3256 16.7173 49.2898 16.7905C49.26 16.7931 49.23 16.7931 49.2002 16.7905C49.1553 16.7836 49.1116 16.7705 49.0703 16.7517C49.0061 16.7263 48.8703 16.6651 48.6658 16.5696C48.4775 16.4819 48.295 16.3822 48.1195 16.271C48.0395 16.2155 47.9557 16.1656 47.8687 16.1217C47.8578 16.1236 47.8467 16.1236 47.8359 16.1217L47.7344 16.2397L47.6179 16.3203L47.5582 16.3964L47.4507 16.4576L47.3851 16.5263L47.2253 16.6278L47.197 16.6681C47.1784 16.6855 47.159 16.7019 47.1388 16.7173C47.1136 16.7298 47.087 16.7393 47.0597 16.7457C47.0104 16.7561 46.9596 16.7561 46.9104 16.7457C46.8615 16.7394 46.814 16.7247 46.7701 16.7024L46.6417 16.6278L46.5492 16.5143C46.523 16.4718 46.5053 16.4247 46.4969 16.3755C46.4816 16.2994 46.4746 16.2218 46.476 16.1441C46.4744 16.0629 46.4979 15.9832 46.5432 15.9158C46.588 15.8516 46.6253 15.8008 46.6536 15.7665C46.7114 15.7612 46.7687 15.7522 46.8253 15.7396C46.8657 15.7276 46.9088 15.7276 46.9492 15.7396C46.9945 15.7539 47.042 15.7599 47.0895 15.7575C47.1817 15.7639 47.2729 15.7809 47.3612 15.8083C47.4881 15.8441 47.6075 15.8814 47.7224 15.9232C47.8422 15.9653 47.9643 16.0007 48.0881 16.0292C48.2248 16.06 48.3645 16.075 48.5046 16.074C48.5983 16.0766 48.6921 16.0727 48.7852 16.062C48.8252 16.0525 48.8634 16.0369 48.8987 16.0158L48.9166 15.668C48.8893 15.6599 48.8613 15.6544 48.833 15.6515C48.804 15.647 48.777 15.634 48.7554 15.6142C48.724 15.5903 48.6733 15.553 48.6061 15.5038C48.5837 15.4694 48.5643 15.4411 48.5494 15.4157C48.5264 15.3689 48.5123 15.3183 48.5076 15.2664C48.4962 15.1732 48.4962 15.079 48.5076 14.9858C48.5486 14.8403 48.6335 14.711 48.7509 14.6156C48.88 14.5047 48.9621 14.3489 48.9808 14.1797C48.9871 14.0913 48.9871 14.0025 48.9808 13.914C48.9744 13.8645 48.9704 13.8147 48.9688 13.7648C48.8716 13.8026 48.7719 13.8336 48.6703 13.8573C48.54 13.8986 48.4067 13.93 48.2717 13.9514C48.2156 13.9625 48.1577 13.9625 48.1016 13.9514C48.0609 13.9382 48.021 13.9228 47.9821 13.9051C47.9702 13.8484 47.9598 13.8066 47.9538 13.7812C47.9429 13.745 47.9246 13.7114 47.9 13.6827C47.8749 13.6519 47.8534 13.6183 47.8359 13.5827L47.912 13.4423L47.9836 13.4095L48.0881 13.4588C48.1165 13.4722 48.2016 13.4498 48.3449 13.3931C48.4882 13.3364 48.7419 13.214 49.1076 13.0259L49.1599 12.908L49.3092 12.805L49.3539 12.7497L49.4331 12.7035L49.5375 12.7915C49.6462 12.7151 49.7593 12.6453 49.8764 12.5825C50.0002 12.5142 50.1199 12.4384 50.2346 12.3557C50.3839 12.2497 50.5018 12.1616 50.5824 12.0929C50.663 12.0243 50.7705 11.9272 50.9064 11.7944C50.9467 11.7347 50.975 11.6899 50.9959 11.663C51.0184 11.6277 51.0374 11.5902 51.0526 11.5511C51.0682 11.5191 51.0739 11.4833 51.0691 11.4481C51.0612 11.4193 51.0562 11.3898 51.0541 11.36C51.0123 11.3436 50.972 11.3272 50.9347 11.3093C50.8704 11.2861 50.803 11.2725 50.7347 11.269C50.6229 11.2598 50.5106 11.2598 50.3988 11.269C50.2341 11.2854 50.0721 11.3225 49.9167 11.3794C49.7986 11.4241 49.6767 11.458 49.5525 11.4809C49.5119 11.4829 49.4716 11.4874 49.4316 11.4944C49.3634 11.5046 49.2945 11.5096 49.2256 11.5093C49.1166 11.513 49.0078 11.4969 48.9046 11.4615C48.8192 11.43 48.7306 11.408 48.6404 11.3958C48.5894 11.3874 48.537 11.3958 48.4912 11.4197L48.3613 11.5003L48.3195 11.5571C48.2615 11.6185 48.2002 11.6768 48.1359 11.7317C48.0314 11.8377 47.9463 11.9272 47.8836 12.0004C47.8347 12.0443 47.8017 12.103 47.7896 12.1676C47.7881 12.1906 47.7812 12.213 47.7695 12.2329C47.7579 12.2529 47.7417 12.2699 47.7224 12.2825C47.6816 12.3148 47.6476 12.3549 47.6224 12.4004C47.6081 12.4311 47.5906 12.4601 47.5702 12.487C47.5552 12.5049 47.5314 12.5393 47.497 12.5915L47.3373 12.5646C47.3002 12.5583 47.2638 12.5488 47.2283 12.5363C47.1975 12.5269 47.1683 12.5128 47.1418 12.4945C47.1154 12.4749 47.0909 12.453 47.0686 12.4288C47.0104 12.3467 46.9656 12.2795 46.9328 12.2437C46.8931 12.1846 46.8643 12.1189 46.8477 12.0496C46.8313 11.9865 46.8078 11.9254 46.7775 11.8675C46.7618 11.842 46.7497 11.8144 46.7417 11.7854C46.7417 11.763 46.7342 11.7332 46.7298 11.6959L46.7895 11.7436C46.8203 11.7705 46.8488 11.7999 46.8746 11.8317C46.8978 11.8558 46.9256 11.8749 46.9564 11.888C46.9872 11.9011 47.0203 11.9078 47.0537 11.9078C47.1313 11.9078 47.2865 11.8153 47.5194 11.6093C47.6872 11.4574 47.868 11.3206 48.0598 11.2003C48.1689 11.1361 48.2872 11.0887 48.4106 11.06C48.5562 11.0347 48.7052 11.0347 48.8509 11.06C49.0568 11.0856 49.2656 11.0739 49.4674 11.0257C49.6371 10.9848 49.8098 10.9578 49.9839 10.945C50.1018 10.9555 50.2436 10.9465 50.3929 10.9331ZM46.9402 15.859C46.9253 15.881 46.9078 15.901 46.888 15.9187C46.8806 15.9242 46.8746 15.9314 46.8707 15.9398C46.8668 15.9481 46.8651 15.9573 46.8656 15.9665C46.8632 15.9963 46.8577 16.0259 46.8492 16.0546L46.897 16.1128C46.9629 16.1279 47.0297 16.1394 47.097 16.1471C47.1507 16.1471 47.2313 16.1606 47.3373 16.1665C47.4334 16.1713 47.5298 16.1683 47.6254 16.1576C47.6763 16.1535 47.7264 16.143 47.7747 16.1262L47.8254 16.0919L47.4791 15.9426C47.4163 15.9144 47.35 15.8943 47.2821 15.8829L47.0253 15.8441L46.9402 15.859ZM49.0584 13.1946L48.8419 13.2796L48.8225 13.2647C48.5539 13.3702 48.2862 13.4612 48.0195 13.5379L48.012 13.5737C48.0324 13.5824 48.0534 13.5899 48.0747 13.5961C48.1367 13.6 48.1989 13.596 48.2598 13.5841C48.5296 13.5179 48.7937 13.43 49.0494 13.3214L49.0673 13.202L49.0584 13.1946ZM49.6032 13.8767L49.5017 13.9514C49.4939 14.0047 49.4829 14.0575 49.4689 14.1096C49.4615 14.1599 49.4672 14.2113 49.4853 14.2589C49.507 14.3294 49.507 14.4048 49.4853 14.4753C49.465 14.5451 49.4559 14.6176 49.4584 14.6902C49.4584 14.7589 49.4584 14.8828 49.4584 15.0619C49.6805 14.9872 49.8911 14.8817 50.0839 14.7485C50.0704 14.7007 50.063 14.6664 50.0585 14.6455C50.046 14.6018 50.0285 14.5597 50.0063 14.5201C49.9534 14.4215 49.8946 14.3263 49.8301 14.235C49.745 14.1066 49.6913 14.026 49.6719 13.9917C49.6525 13.9573 49.6301 13.92 49.6077 13.8767H49.6032ZM50.3914 15.668L50.4541 15.6978C50.4936 15.7158 50.532 15.7363 50.569 15.759L50.7362 15.8486C50.7944 15.8784 50.8422 15.9068 50.8855 15.9307C50.923 15.9559 50.966 15.9717 51.0108 15.977C51.2915 16.265 51.4303 16.4367 51.4318 16.4934C51.4351 16.5372 51.4263 16.5811 51.4064 16.6203C51.3975 16.6341 51.3917 16.6496 51.3894 16.6659C51.3871 16.6821 51.3883 16.6986 51.393 16.7143C51.3993 16.7378 51.3993 16.7625 51.393 16.786C51.393 16.7979 51.3825 16.8099 51.3781 16.8248L51.1915 16.9174L51.1497 16.8771C51.1367 16.8651 51.1024 16.8621 51.0467 16.8681C50.9733 16.8771 50.9009 16.8925 50.8302 16.9144C50.7789 16.9315 50.7258 16.943 50.672 16.9487C50.6587 16.9462 50.6467 16.9394 50.6377 16.9293C50.5953 16.9537 50.5545 16.9807 50.5153 17.0099C50.5021 17.0213 50.4858 17.0284 50.4686 17.0306C50.4513 17.0327 50.4338 17.0297 50.4182 17.0218C50.3839 17.0069 50.36 17.0024 50.3481 17.0084C50.3313 17.0169 50.3131 17.0225 50.2943 17.0248L50.2735 17.0099C50.2492 17.0204 50.2226 17.0243 50.1964 17.0211C50.1702 17.018 50.1453 17.0079 50.1242 16.992L50.0973 16.9621H50.0048L49.9645 16.9114L49.8943 16.8815L49.8809 16.8457C49.9657 16.8368 50.0471 16.8076 50.1182 16.7606C50.1869 16.677 50.2331 16.6218 50.257 16.5949L50.3302 16.5158C50.3638 16.479 50.3925 16.4378 50.4153 16.3934L50.5989 16.0874C50.5823 16.0302 50.5698 15.9718 50.5615 15.9128C50.5574 15.8761 50.5411 15.842 50.5153 15.8157C50.4717 15.7704 50.4309 15.7225 50.3929 15.6724L50.3914 15.668Z" fill="#8B1411"/>
<path d="M65.2139 15.3441H65.2303C65.239 15.3515 65.2452 15.3614 65.2482 15.3724C65.2594 15.3987 65.2723 15.4241 65.287 15.4486L65.2676 15.6128L65.3049 15.5978C65.284 15.6561 65.2676 15.7083 65.2542 15.7546C65.2039 15.8637 65.1424 15.9673 65.0706 16.0636C65.0076 16.1491 64.9497 16.2383 64.8974 16.3308C64.8921 16.3467 64.8886 16.3633 64.887 16.38C64.9401 16.3888 64.9883 16.4164 65.0228 16.4576L65.0079 16.5591C65.0126 16.5701 65.0204 16.5794 65.0303 16.586L65.0736 16.6024C65.096 16.6024 65.1303 16.6189 65.178 16.6293L65.2049 16.7592L65.1318 16.792C65.1121 16.7996 65.0943 16.8113 65.0795 16.8263C65.0644 16.839 65.0539 16.8563 65.0497 16.8756C65.0497 16.8905 65.0497 16.9189 65.0348 16.9607C65.011 16.974 64.9853 16.9835 64.9586 16.989C64.9161 16.9954 64.8728 16.9954 64.8303 16.989C64.7676 16.989 64.7138 16.9771 64.669 16.9696C64.6243 16.9622 64.5571 16.9487 64.472 16.9308C64.3836 16.982 64.304 17.047 64.2362 17.1234C64.1585 17.1983 64.0857 17.2781 64.0182 17.3622C64.054 17.41 64.0809 17.4443 64.1003 17.4652C64.1204 17.4894 64.1365 17.5166 64.1481 17.5458C64.1716 17.597 64.198 17.6469 64.2272 17.6951C64.2645 17.7951 64.2914 17.8638 64.3078 17.8996C64.3273 17.9469 64.3365 17.9978 64.3347 18.0489C64.3322 18.132 64.3145 18.2139 64.2824 18.2907C64.2512 18.3774 64.2107 18.4605 64.1615 18.5385C64.1254 18.5998 64.0806 18.6555 64.0287 18.7042C63.9854 18.7415 63.9182 18.8042 63.8257 18.8922C63.8475 18.9249 63.8725 18.9554 63.9003 18.9833C64.04 19.2642 64.165 19.5522 64.275 19.8461L64.2347 19.9327C64.2277 19.9478 64.2231 19.9639 64.2212 19.9804C64.2225 19.9999 64.2271 20.0191 64.2347 20.0371C64.231 20.0439 64.2252 20.0493 64.2182 20.0525C64.2112 20.0558 64.2034 20.0566 64.1959 20.0551L64.0317 19.9954C63.9597 19.9717 63.891 19.9391 63.8272 19.8983C63.7836 19.868 63.7305 19.8547 63.6779 19.861C63.6436 19.8591 63.6102 19.8491 63.5804 19.832C63.5506 19.8149 63.5252 19.7911 63.5062 19.7625C63.4435 19.6923 63.3928 19.658 63.357 19.6565C63.3137 19.6558 63.2714 19.6434 63.2345 19.6207C63.179 19.586 63.1265 19.5466 63.0778 19.5028C63.0151 19.4475 62.9285 19.3714 62.8315 19.2729L62.7808 19.2818C62.7634 19.2648 62.747 19.2469 62.7315 19.2281C62.7211 19.2117 62.6808 19.2087 62.6121 19.2162C62.5626 19.2237 62.5123 19.2237 62.4628 19.2162L62.3344 19.1953L62.3001 19.1176L62.0613 19.0788C61.9716 19.0628 61.8836 19.0383 61.7986 19.0057C61.7144 18.9795 61.6356 18.9385 61.5657 18.8848C61.5243 18.8485 61.4864 18.8085 61.4523 18.7654L61.3314 18.5982C61.322 18.5472 61.308 18.4973 61.2896 18.4489C61.2829 18.4339 61.2794 18.4176 61.2794 18.4011C61.2794 18.3847 61.2829 18.3684 61.2896 18.3534C61.3015 18.3205 61.3209 18.2608 61.3448 18.1728C61.3703 18.202 61.3983 18.2289 61.4284 18.2534C61.4764 18.2874 61.5262 18.3188 61.5776 18.3474C61.6651 18.3941 61.7565 18.433 61.8508 18.4638C61.9234 18.4933 62.0009 18.509 62.0792 18.5101L62.2404 18.4892C62.1807 18.3399 62.1314 18.219 62.0911 18.1354C61.9635 17.9171 61.8177 17.7098 61.6553 17.516L61.6344 17.3667L61.5911 17.3398C61.7583 17.4174 61.8896 17.4727 61.9911 17.507C62.1158 17.5583 62.234 17.6239 62.3434 17.7026C62.6074 17.896 62.8605 18.1038 63.1017 18.325L63.2032 18.3086C63.2771 18.2744 63.3528 18.2445 63.4301 18.219C63.5574 18.163 63.6665 18.0725 63.7451 17.9578C63.76 17.9235 63.7824 17.8787 63.8122 17.825C63.8042 17.8123 63.7991 17.798 63.7973 17.7832C63.7973 17.7697 63.7436 17.7309 63.6391 17.6682C63.5662 17.6316 63.5012 17.5808 63.448 17.519C63.4192 17.4729 63.3878 17.4286 63.354 17.3861C63.3409 17.3211 63.323 17.2573 63.3002 17.195C63.2847 17.1572 63.2806 17.1157 63.2883 17.0756C63.2958 17.0323 63.3017 16.9577 63.3092 16.8517C63.2348 16.8598 63.1614 16.8748 63.0898 16.8965C63.0271 16.9174 62.9032 16.9502 62.7211 16.9965C62.5389 17.0428 62.333 17.092 62.1031 17.1458C61.8732 17.1995 61.4941 17.295 60.9701 17.4607C60.8827 17.5149 60.7902 17.5604 60.694 17.5966C60.6372 17.6145 60.576 17.6817 60.5119 17.8011C60.4477 17.9205 60.3477 18.1369 60.2133 18.4519C60.1368 18.6442 60.0475 18.8312 59.9461 19.0117L59.7894 19.2356L59.6401 19.2251L59.5506 19.046L59.5177 18.9624C59.4864 18.8952 59.4595 18.8415 59.4371 18.7997C59.4147 18.7579 59.3774 18.6862 59.3252 18.5818C59.2867 18.4991 59.2392 18.421 59.1834 18.3489C59.1243 18.2781 59.0695 18.2038 59.0192 18.1265C58.9878 18.0041 58.9639 17.9175 58.9475 17.8682C58.9312 17.8202 58.9226 17.7698 58.9221 17.719C58.9217 17.6698 58.938 17.6218 58.9684 17.5831C58.9944 17.5488 59.0304 17.5233 59.0714 17.51C59.1102 17.4995 59.1744 17.4772 59.261 17.4443L60.5432 17.1906C60.8567 16.6741 61.0204 16.4009 61.0343 16.3711L61.0836 16.2621C61.0341 16.2706 60.9843 16.2766 60.9343 16.28C60.8781 16.2862 60.8236 16.3024 60.7731 16.3278C60.6702 16.3658 60.5637 16.3928 60.4551 16.4084C60.3194 16.4313 60.1822 16.4443 60.0446 16.4472C59.9205 16.4496 59.7968 16.4335 59.6774 16.3994C59.5494 16.3605 59.4306 16.296 59.3281 16.2099C59.2476 16.1519 59.1774 16.0807 59.1207 15.9994C59.0983 15.9516 59.0684 15.8949 59.0326 15.8262L59.0669 15.7173C59.1119 15.7299 59.1563 15.7448 59.1998 15.762C59.2899 15.7826 59.382 15.7931 59.4744 15.7934C59.6701 15.7994 59.866 15.7939 60.0611 15.777C60.3059 15.7591 60.784 15.7202 61.4956 15.6605C61.6933 15.3623 61.9112 15.0781 62.1479 14.8097C62.2 14.7573 62.2606 14.7139 62.327 14.6813C62.3626 14.6723 62.3968 14.6582 62.4285 14.6395L62.5061 14.6739L62.5509 14.85C62.533 14.8805 62.512 14.909 62.4882 14.9351C62.4556 14.9831 62.4323 15.0367 62.4195 15.0933C62.3926 15.1802 62.3805 15.2711 62.3837 15.362C62.3837 15.4378 62.3922 15.5135 62.4091 15.5874C62.4234 15.6358 62.4269 15.6867 62.4195 15.7367C62.4064 15.7838 62.3767 15.8246 62.3359 15.8516C62.2905 15.8855 62.2402 15.9121 62.1867 15.9307C62.1285 15.9486 62.018 15.9904 61.8523 16.0561L61.6553 16.1128C61.6417 16.1247 61.6266 16.1347 61.6105 16.1427C61.5966 16.1496 61.3816 16.4731 60.9656 17.1129C60.9869 17.116 61.0085 17.116 61.0298 17.1129C61.0552 17.1129 61.2463 17.0876 61.6045 17.0398C62.2446 16.9218 62.8748 16.7556 63.4898 16.5427C63.5943 16.4397 63.6779 16.3561 63.7406 16.2905C63.8477 16.1878 63.9608 16.0916 64.0794 16.0024C64.2406 15.874 64.36 15.7745 64.4377 15.7038C64.4914 15.6561 64.5373 15.6002 64.5735 15.5381C64.587 15.5094 64.5989 15.48 64.6093 15.4501C64.6168 15.4277 64.6332 15.3889 64.6586 15.3321L64.8571 15.3769L65.0213 15.2724C65.0794 15.3104 65.1452 15.3348 65.2139 15.3441ZM60.2044 17.916C60.1073 17.9444 60.0267 17.9668 59.964 17.9817C59.8754 17.9995 59.7856 18.0105 59.6953 18.0145C59.6126 18.0256 59.5284 18.0179 59.4491 17.9921C59.3993 17.9702 59.3351 17.9434 59.2565 17.9115L59.2684 17.9712C59.3565 18.0742 59.4177 18.1534 59.467 18.2101C59.5109 18.268 59.5609 18.3211 59.6162 18.3683C59.6603 18.4086 59.7108 18.4414 59.7655 18.4653C59.8028 18.4803 59.8521 18.5041 59.9148 18.537C59.9566 18.4683 59.9894 18.4161 60.0103 18.3788C60.0372 18.3315 60.0587 18.2815 60.0745 18.2295C60.0954 18.1713 60.1357 18.0668 60.2044 17.916ZM62.3165 14.9724C62.2977 14.9915 62.276 15.0076 62.2524 15.0202C62.1206 15.2082 62.0038 15.4064 61.9031 15.6128C61.9032 15.6179 61.9049 15.6229 61.9078 15.6271C61.9107 15.6313 61.9147 15.6347 61.9195 15.6367C61.9525 15.6427 61.9864 15.6427 62.0195 15.6367C62.0747 15.6292 62.1613 15.6202 62.2792 15.6113C62.2517 15.4025 62.269 15.1903 62.33 14.9888L62.3165 14.9724Z" fill="#8B1411"/>
<path d="M73.1327 21.7552C73.1237 21.8075 73.1163 21.8508 73.1103 21.8821C73.0965 21.9333 73.0785 21.9832 73.0565 22.0314C73.0308 22.0989 72.9945 22.1618 72.9491 22.218C72.9149 22.2566 72.8881 22.3011 72.87 22.3493C72.8601 22.3831 72.8427 22.4142 72.8192 22.4404C72.7946 22.4668 72.7753 22.4977 72.7625 22.5315C72.7433 22.5801 72.7274 22.63 72.7147 22.6807C72.7032 22.7128 72.6832 22.7412 72.657 22.763C72.6307 22.7848 72.5991 22.7992 72.5655 22.8046C72.4781 22.83 72.3983 22.8761 72.3326 22.939C72.2686 22.9996 72.1974 23.0523 72.1206 23.0957C72.0586 23.1289 72.0034 23.1735 71.9579 23.2271C71.9206 23.2753 71.8739 23.3154 71.8206 23.345C71.7617 23.3797 71.7108 23.4265 71.6713 23.4823C71.6217 23.5473 71.5623 23.6042 71.4952 23.651C71.4256 23.6985 71.3633 23.7558 71.3101 23.8212C71.2539 23.8899 71.1919 23.9538 71.125 24.0122C71.048 24.0813 70.978 24.1578 70.916 24.2406C70.8723 24.3005 70.8223 24.3556 70.7667 24.4048C70.7422 24.4186 70.7237 24.4409 70.7145 24.4675C70.7122 24.4774 70.707 24.4864 70.6996 24.4933C70.6921 24.5002 70.6828 24.5048 70.6727 24.5063C70.6503 24.5063 70.6309 24.5406 70.613 24.5944C70.5987 24.6448 70.5715 24.6907 70.5339 24.7272C70.4972 24.7592 70.4681 24.799 70.4488 24.8437C70.4294 24.8884 70.3771 24.984 70.2995 25.1303L70.3219 25.187L70.31 25.2661L70.2324 25.2989C70.2173 25.2888 70.2006 25.2812 70.1831 25.2765L70.1338 25.4109L70.0786 25.393C70.0788 25.3469 70.067 25.3017 70.0443 25.2616C70.0142 25.2657 69.986 25.2789 69.9636 25.2995C69.9412 25.32 69.9256 25.3469 69.9189 25.3766C69.9043 25.3725 69.8888 25.3729 69.8745 25.3777C69.8601 25.3825 69.8475 25.3914 69.8383 25.4034H69.7935L69.7323 25.4407L69.695 25.3392H69.6248L69.5994 25.2482V25.1929L69.5427 25.1004C69.595 24.9825 69.6353 24.8944 69.6636 24.8347C69.7141 24.7408 69.7694 24.6497 69.8293 24.5615C69.9114 24.4376 70.0308 24.2749 70.1891 24.0734C70.3473 23.8719 70.5354 23.6555 70.7548 23.4241C70.9742 23.1927 71.1922 22.9763 71.4086 22.7897C71.625 22.6031 71.8086 22.4449 71.9624 22.3255C72.086 22.2244 72.2202 22.1368 72.3624 22.0642C72.4617 22.0152 72.5679 21.982 72.6774 21.9657C72.753 21.961 72.8266 21.9391 72.8924 21.9015C72.9446 21.8642 73.0237 21.8179 73.1327 21.7552ZM75.1553 22.5837C75.3046 22.6494 75.3971 22.718 75.4255 22.7912C75.4451 22.8351 75.461 22.8805 75.4732 22.927C75.4732 22.9434 75.4807 22.9614 75.4867 22.9823L75.4329 23.0599L75.4971 23.0972C75.4897 23.1241 75.4822 23.1464 75.4762 23.1644C75.4502 23.2166 75.4197 23.2666 75.3852 23.3136C75.3436 23.3829 75.2935 23.4466 75.2359 23.5032C75.1911 23.5435 75.1284 23.6062 75.0448 23.6898L75.0523 23.7704C75.0924 23.8004 75.1251 23.8392 75.1478 23.8838L75.1314 24.054L75.1717 24.2705C75.1572 24.3027 75.1457 24.3361 75.1374 24.3705C75.1326 24.3942 75.1251 24.4172 75.115 24.4391C75.1045 24.4615 75.0851 24.5048 75.0598 24.5675L74.9418 24.5809C74.9099 24.585 74.8793 24.5962 74.8523 24.6138C74.7758 24.6471 74.6948 24.6687 74.6119 24.678C74.3529 24.7018 74.0924 24.7058 73.8328 24.6899L73.788 24.6645C73.7298 24.6899 73.673 24.7183 73.6178 24.7496C73.5715 24.7765 73.4835 24.8347 73.3521 24.9228C73.2642 24.9797 73.18 25.042 73.0998 25.1094L72.9506 25.2437C73.2631 25.2484 73.5745 25.2829 73.8805 25.3467C74.0165 25.3877 74.1439 25.453 74.2567 25.5393C74.3407 25.5958 74.4127 25.6683 74.4686 25.7527C74.4925 25.7898 74.5082 25.8315 74.5149 25.8751C74.5123 25.9034 74.5123 25.9319 74.5149 25.9602C74.4996 25.9891 74.4876 26.0196 74.4791 26.0513C74.4663 26.0913 74.4482 26.1294 74.4254 26.1647C74.3949 26.2148 74.3577 26.2605 74.3149 26.3005C74.2547 26.351 74.1873 26.3923 74.1149 26.4229C74.0312 26.4619 73.9455 26.4963 73.8581 26.5259C73.776 26.5528 73.6477 26.6006 73.4715 26.6662L73.6283 26.8006C73.6968 26.8553 73.7486 26.9282 73.7775 27.0111C73.7966 27.0672 73.8096 27.1253 73.8163 27.1842C73.8202 27.2384 73.8202 27.2928 73.8163 27.3469C73.7969 27.423 73.7835 27.4828 73.7745 27.5246C73.75 27.599 73.7138 27.6691 73.6671 27.732C73.596 27.8334 73.5122 27.9252 73.4178 28.0052C73.3365 28.0778 73.2502 28.1447 73.1595 28.2052C73.1073 28.2433 73.0487 28.2716 72.9864 28.2888C72.9077 28.3105 72.8305 28.3369 72.755 28.3679L72.6908 28.35L72.243 28.3694L71.9863 28.3067C71.9129 28.2843 71.8449 28.2472 71.7863 28.1978C71.7258 28.1535 71.6698 28.1035 71.6191 28.0485C71.584 28.0144 71.561 27.9699 71.5534 27.9216C71.5497 27.8737 71.5417 27.8263 71.5295 27.7798C71.5295 27.7499 71.5295 27.7276 71.537 27.7141C71.5394 27.6948 71.5466 27.6763 71.5579 27.6604L71.6325 27.5484C71.6504 27.5962 71.6653 27.6335 71.6743 27.6604C71.6946 27.7048 71.7213 27.746 71.7534 27.7828C71.7983 27.8375 71.8579 27.8784 71.9251 27.9007C71.9872 27.9215 72.0512 27.9365 72.1161 27.9455L72.3639 27.9724C72.4848 27.95 72.5729 27.935 72.6281 27.9291C72.7036 27.9172 72.777 27.8945 72.8461 27.8619C72.9405 27.8218 73.0285 27.768 73.1073 27.7022C73.187 27.6386 73.2596 27.5665 73.3237 27.4872C73.369 27.441 73.4005 27.3831 73.4148 27.32C73.4148 27.2842 73.4223 27.232 73.4312 27.1708C73.4164 27.1357 73.4054 27.0992 73.3984 27.0618C73.3984 27.0364 73.3685 27.0096 73.3237 26.9812C73.2762 26.9529 73.2263 26.9289 73.1745 26.9096L72.9625 26.8364H72.8132L72.7177 26.8275L72.4565 26.8379L72.4087 26.7961C72.4684 26.7215 72.5177 26.6558 72.558 26.5976C72.5968 26.5443 72.6327 26.489 72.6655 26.4319C72.6953 26.3782 72.7282 26.3513 72.761 26.3528C72.7856 26.3562 72.8106 26.3504 72.8312 26.3364C72.8589 26.3133 72.8883 26.2923 72.9192 26.2737L73.0521 26.3438C73.4909 26.2274 73.7661 26.1493 73.8775 26.1095C73.9531 26.0894 74.024 26.0549 74.0865 26.008C74.1149 25.9781 74.1552 25.9408 74.2074 25.8915C74.1897 25.869 74.1747 25.8444 74.1626 25.8184C74.1439 25.7913 74.1157 25.7721 74.0835 25.7647C74.0302 25.745 73.9759 25.728 73.9208 25.7139C73.8166 25.689 73.7109 25.6706 73.6044 25.6587C73.5049 25.6646 73.4272 25.6676 73.3715 25.6676C73.2826 25.674 73.1948 25.6916 73.1103 25.7199C72.9407 25.7651 72.7681 25.7981 72.5938 25.8184C72.3699 25.8482 72.249 25.8662 72.2311 25.8736C72.2087 25.8836 72.1872 25.8956 72.1669 25.9094L72.1326 25.893C72.1157 25.946 72.0808 25.9914 72.034 26.0214C71.925 26.1065 71.8213 26.1982 71.7236 26.2961C71.5624 26.4453 71.4653 26.5438 71.434 26.5827C71.4026 26.6215 71.3355 26.6961 71.231 26.8051H71.1951L71.0922 26.9021L70.9966 26.7782L70.9309 26.7707C70.8757 26.8081 70.822 26.8424 70.7667 26.8737L70.7473 26.7245C70.8021 26.609 70.8633 26.4941 70.9309 26.3796L70.9235 26.3393L70.9906 26.2572L70.9429 26.2259L70.9533 26.205C70.969 26.2009 70.9854 26.2009 71.0011 26.205C71.007 26.206 71.0131 26.2051 71.0185 26.2024C71.0238 26.1997 71.0282 26.1954 71.031 26.1901C71.0542 26.1742 71.0819 26.1658 71.1101 26.1662C71.1534 26.1662 71.1817 26.1468 71.1922 26.1244C71.2087 26.0922 71.2299 26.0625 71.2549 26.0363H71.3205L71.4803 25.9169H71.4355C71.3638 25.9363 71.3116 25.9497 71.2787 25.9557C71.2344 25.967 71.1956 25.9941 71.1698 26.0318C71.1409 26.0716 71.0984 26.0993 71.0504 26.1095C71.0071 26.1095 70.9429 26.1319 70.8548 26.1542L70.8339 26.0483L70.7936 26.0677L70.8056 25.9975C70.7966 25.9736 70.7891 25.9557 70.7861 25.9438C70.7776 25.9281 70.7659 25.9144 70.7518 25.9035C70.7341 25.8876 70.7216 25.8668 70.716 25.8438C70.7133 25.825 70.7043 25.8076 70.6906 25.7945C70.6763 25.7822 70.6642 25.7676 70.6548 25.7512L70.716 25.6706C70.7305 25.6484 70.7383 25.6225 70.7384 25.596C70.7433 25.5528 70.7544 25.5106 70.7712 25.4706C70.7951 25.4095 70.8251 25.351 70.8608 25.2959C70.9166 25.2159 70.9943 25.1537 71.0847 25.1168C71.1937 25.0631 71.331 25.0019 71.4982 24.9317C71.7311 24.8389 71.9694 24.7602 72.2117 24.6959C72.3968 24.6492 72.5791 24.5924 72.758 24.5257L72.955 24.4406C72.9098 24.4198 72.8634 24.4013 72.8162 24.3854C72.7902 24.3777 72.7672 24.362 72.7505 24.3406C72.7238 24.3098 72.6926 24.2831 72.658 24.2615C72.6277 24.2447 72.602 24.2206 72.5834 24.1913C72.5779 24.1762 72.5709 24.1617 72.5625 24.1481L72.5177 24.0734C72.5177 24.0197 72.5177 23.9824 72.5251 23.9615C72.5386 23.9151 72.5603 23.8716 72.5893 23.8331C72.6198 23.783 72.6569 23.7373 72.6998 23.6973C72.7479 23.6535 72.7896 23.6033 72.8237 23.548C72.9018 23.4461 72.9967 23.3583 73.1043 23.2883C73.259 23.1804 73.4211 23.0837 73.5894 22.9987C73.7745 22.9051 73.9522 22.8245 74.1223 22.7569C74.2331 22.7077 74.3486 22.6701 74.4672 22.6449C74.5472 22.632 74.6264 22.6146 74.7045 22.5927L75.1553 22.5837ZM74.6627 22.9061C74.613 22.9093 74.5631 22.9093 74.5134 22.9061C74.451 22.9034 74.3884 22.9074 74.3268 22.9181C74.2016 22.9406 74.0783 22.9731 73.9581 23.0151C73.8129 23.0608 73.6744 23.1255 73.5462 23.2076C73.4419 23.2731 73.3465 23.3519 73.2625 23.442C73.2116 23.4905 73.1697 23.5476 73.1386 23.6107C73.1267 23.6435 73.1103 23.6928 73.0879 23.76V23.851L73.1745 23.8764L73.3088 23.9107C73.4309 23.9383 73.5545 23.9587 73.679 23.9719H73.8417C73.8905 23.9719 74.082 23.8346 74.4164 23.5599C74.6036 23.4176 74.7811 23.263 74.9478 23.0972C74.9684 23.0607 74.9908 23.0254 75.015 22.9912L74.6627 22.9061ZM75.0329 23.7211C74.9211 23.7855 74.8182 23.8643 74.7269 23.9555C74.8015 23.9376 74.8538 23.9271 74.8836 23.9212C74.9157 23.9148 74.9453 23.8992 74.9687 23.8764C74.9896 23.86 75.0039 23.8367 75.009 23.8107C75.0111 23.7831 75.0187 23.7562 75.0314 23.7316L75.0329 23.7211Z" fill="#8B1411"/>
<path d="M81.9411 37.6272C81.9583 37.686 81.9787 37.7438 82.0023 37.8004C82.0223 37.8533 82.0324 37.9095 82.0321 37.9661C82.0368 38.014 82.0312 38.0623 82.0157 38.1079C82.0038 38.1362 81.9918 38.1661 81.9784 38.2019C81.935 38.2451 81.8956 38.2921 81.8605 38.3422C81.8468 38.3607 81.8296 38.3762 81.8098 38.388C81.7901 38.3998 81.7683 38.4076 81.7455 38.4109C81.6938 38.4213 81.6405 38.4213 81.5888 38.4109C81.541 38.4004 81.4604 38.387 81.347 38.3676L81.1678 38.2482C81.0987 38.1968 81.0337 38.1399 80.9738 38.078C80.8922 37.9981 80.8197 37.9095 80.7573 37.8138C80.679 37.7007 80.5937 37.5925 80.5021 37.4899C80.4243 37.3953 80.3362 37.3096 80.2394 37.2346C80.1722 37.1884 80.0901 37.1257 79.9737 37.0451C79.9513 37.0689 79.9349 37.0883 79.9199 37.1063C79.8947 37.1338 79.8655 37.1574 79.8334 37.1764C79.7596 37.2076 79.6774 37.2123 79.6005 37.1898C79.5281 37.1746 79.4548 37.1636 79.3811 37.157C79.3344 37.153 79.2874 37.153 79.2408 37.157L79.1766 37.2705C79.3632 37.4972 79.531 37.7388 79.6781 37.9929C79.7239 38.0863 79.7609 38.1838 79.7886 38.284C79.8021 38.3326 79.8082 38.3829 79.8065 38.4333C79.8065 38.4616 79.7975 38.496 79.7916 38.5333C79.7529 38.5722 79.7175 38.6141 79.6856 38.6587C79.6786 38.6713 79.6685 38.682 79.6562 38.6896C79.6439 38.6971 79.6299 38.7014 79.6154 38.702C79.5705 38.7037 79.5256 38.7076 79.4811 38.7139C79.4602 38.702 79.4303 38.6796 79.3885 38.6497C79.3482 38.6203 79.3125 38.5851 79.2826 38.5452C79.256 38.5105 79.2325 38.4736 79.2124 38.4348C79.1945 38.4019 79.1676 38.3482 79.1318 38.2765C79.1408 38.2774 79.1496 38.2805 79.1572 38.2855C79.1883 38.301 79.2207 38.3135 79.2542 38.3228C79.2916 38.3384 79.3316 38.3465 79.3721 38.3467L79.4468 38.3348C79.4456 38.3144 79.4456 38.2939 79.4468 38.2735C79.4379 38.2251 79.4218 38.1783 79.399 38.1347C79.3582 38.0419 79.3082 37.9533 79.2497 37.8705C79.2079 37.8066 79.1615 37.7457 79.1109 37.6884C79.0885 37.666 79.0616 37.6436 79.0333 37.6183C78.8442 37.9944 78.7183 38.2352 78.6556 38.3407C78.6055 38.4389 78.5377 38.5269 78.4556 38.6005C78.3903 38.655 78.318 38.7007 78.2406 38.7363C78.1764 38.7647 78.1077 38.7818 78.0376 38.787C77.9642 38.7911 77.8906 38.7866 77.8182 38.7736C77.7623 38.7671 77.7076 38.753 77.6555 38.7318C77.6154 38.7126 77.5734 38.6976 77.5301 38.687C77.448 38.5751 77.3809 38.4825 77.3226 38.4079C77.2585 38.3234 77.2044 38.2317 77.1614 38.1347C77.1208 38.0545 77.0931 37.9683 77.0793 37.8795C77.0805 37.8369 77.068 37.795 77.0435 37.7601C77.0331 37.7476 77.0261 37.7327 77.023 37.7168C77.0198 37.7009 77.0207 37.6845 77.0256 37.669C77.0032 37.5172 76.9605 37.3691 76.8987 37.2287C76.8309 37.0702 76.7837 36.9036 76.7584 36.7331C76.7617 36.6824 76.7545 36.6316 76.7375 36.5838C76.727 36.5689 76.7166 36.554 76.7076 36.5435L76.7778 36.3211C76.8266 36.2784 76.8725 36.2326 76.9151 36.1838C76.9474 36.1478 76.9872 36.1193 77.0316 36.1002C77.0757 36.0805 77.1153 36.0521 77.148 36.0166C77.1763 35.9822 77.2361 35.9718 77.3271 35.9808C77.4024 35.9851 77.4758 36.006 77.5421 36.042C77.6243 36.0871 77.7096 36.1265 77.7973 36.1599L78.3854 36.5316L78.8825 37.0062C78.9374 36.945 78.9979 36.8891 79.0631 36.8391C79.1243 36.7834 79.1951 36.7394 79.2721 36.7092L79.5154 36.6316L79.3258 36.5047C79.2958 36.4897 79.2713 36.4657 79.2557 36.436L79.2318 36.3733L79.2855 36.342C79.2988 36.3346 79.3136 36.3305 79.3288 36.33C79.3572 36.3261 79.3852 36.3196 79.4124 36.3106C79.4617 36.3008 79.5124 36.3008 79.5617 36.3106C79.6214 36.3196 79.6617 36.3106 79.6781 36.3017C79.7024 36.2838 79.7284 36.2683 79.7557 36.2554L79.8572 36.3465C79.8565 36.3732 79.86 36.3999 79.8677 36.4256C79.8781 36.4572 79.9 36.4838 79.9289 36.5002C79.9557 36.517 79.9773 36.5407 79.9916 36.5689C79.9943 36.5788 79.9992 36.5879 80.0059 36.5957C80.0126 36.6034 80.021 36.6096 80.0304 36.6137C80.0483 36.6226 80.0573 36.6465 80.0558 36.6838C80.0543 36.7211 80.1513 36.8331 80.3454 37.0197C80.5394 37.2063 80.7081 37.3585 80.8514 37.4794C80.9947 37.6003 81.1007 37.6839 81.1634 37.7302C81.2477 37.7916 81.336 37.8474 81.4276 37.8974C81.5025 37.922 81.5753 37.9525 81.6455 37.9884C81.6749 38.0076 81.709 38.0184 81.744 38.0198L81.8455 38.0093C81.8545 37.9496 81.8605 37.9004 81.8649 37.8601C81.8694 37.7992 81.8664 37.7381 81.856 37.678C81.8428 37.5951 81.8218 37.5136 81.7933 37.4346C81.7603 37.3473 81.7172 37.2642 81.6649 37.1869C81.6092 37.1063 81.5331 36.9809 81.4365 36.8107C81.547 36.9769 81.6291 37.0948 81.6828 37.1645C81.7314 37.228 81.7739 37.296 81.8097 37.3675C81.8366 37.4317 81.8888 37.5182 81.9411 37.6272ZM78.7407 37.3287C78.5357 37.1599 78.3159 37.0101 78.0839 36.8809C77.9824 36.8462 77.8828 36.8063 77.7854 36.7614C77.7227 36.7311 77.6572 36.7071 77.5898 36.6898C77.5443 36.6758 77.4971 36.6677 77.4495 36.6659C77.4208 36.668 77.3926 36.6746 77.3659 36.6853L77.2898 36.8256C77.2909 36.8537 77.2944 36.8817 77.3002 36.9092C77.3002 36.9301 77.3271 36.9913 77.3659 37.0958C77.4291 37.2539 77.5039 37.4071 77.5898 37.5541C77.7003 37.7541 77.7854 37.8959 77.8436 37.981C77.8809 38.0402 77.925 38.0948 77.9749 38.1437L78.0914 38.2362C78.1205 38.2306 78.1504 38.2306 78.1794 38.2362C78.1989 38.2362 78.2302 38.2288 78.275 38.1974C78.3218 38.1614 78.3588 38.1142 78.3825 38.0601C78.437 37.9566 78.4983 37.8569 78.5661 37.7616L78.7377 37.3436L78.7407 37.3287ZM82.8531 34.9866C82.8596 35.037 82.8696 35.0869 82.883 35.1359C82.8917 35.1982 82.885 35.2618 82.8636 35.321C82.8421 35.4007 82.8421 35.4846 82.8636 35.5643C82.8817 35.6452 82.9113 35.7232 82.9516 35.7957C82.9919 35.8748 83.0472 35.9852 83.1143 36.1285C83.1722 36.2385 83.2082 36.3586 83.2203 36.4823C83.2269 36.5506 83.2203 36.6195 83.2009 36.6853C83.1845 36.7286 83.1636 36.7913 83.1367 36.8704C83.1016 36.892 83.0695 36.9181 83.0412 36.948C83.0112 36.9724 82.975 36.9879 82.9367 36.9928C82.8625 37.0037 82.7869 36.9997 82.7143 36.9809C82.6263 36.9623 82.54 36.9368 82.456 36.9047C82.3799 36.8749 82.2545 36.8346 82.0799 36.7823C81.9157 36.7062 81.7978 36.654 81.7231 36.6226C81.6485 36.5913 81.6097 36.5719 81.6052 36.5599C81.6016 36.5477 81.5971 36.5357 81.5918 36.5241L81.5127 36.4928C81.3445 36.3733 81.2295 36.2957 81.1678 36.2599C81.1192 36.2358 81.0784 36.1986 81.0499 36.1524C81.0234 36.1095 80.9835 36.0765 80.9365 36.0584C80.8355 36.0001 80.7422 35.9294 80.6588 35.8479C80.5324 35.7325 80.3757 35.6026 80.1886 35.4583C79.8665 35.2327 79.5253 35.0354 79.1691 34.8687C79.2617 34.9403 79.3393 35.0045 79.402 35.0598C79.4647 35.115 79.7274 35.2807 80.1916 35.5583L79.8796 35.409C79.8764 35.4057 79.8724 35.403 79.868 35.4012C79.8637 35.3994 79.859 35.3985 79.8543 35.3986C79.8032 35.3878 79.7532 35.3723 79.705 35.3523C79.631 35.3223 79.552 35.3061 79.4721 35.3046C79.3935 35.3042 79.3152 35.2937 79.2393 35.2732C78.9707 35.1768 78.7085 35.0637 78.4541 34.9344C78.2016 34.817 77.9595 34.6787 77.7301 34.5209C77.7056 34.5003 77.686 34.4744 77.6728 34.4452C77.6597 34.416 77.6532 34.3842 77.654 34.3522C77.6577 34.2982 77.6688 34.245 77.6869 34.194C77.7015 34.157 77.7086 34.1174 77.7078 34.0776C77.7078 34.0477 77.7078 34.0029 77.7003 33.9432C77.8496 33.8686 77.9511 33.8148 78.0063 33.779C78.0615 33.7432 78.0988 33.7298 78.1227 33.7372C78.1522 33.7453 78.1821 33.7517 78.2123 33.7566L78.263 33.8238C78.3691 33.9218 78.4807 34.0135 78.5974 34.0985C78.8581 34.2948 79.1286 34.4776 79.4079 34.6463C79.7423 34.8513 80.1045 35.0881 80.4946 35.3568C80.724 35.5284 80.9666 35.6816 81.2201 35.8151C81.3005 35.8422 81.3732 35.8883 81.4321 35.9494C81.4783 36.0017 81.7903 36.1524 82.368 36.3972L82.871 36.5151C82.8551 36.4714 82.8417 36.4311 82.8307 36.3942C82.8055 36.3329 82.7707 36.276 82.7277 36.2256C82.6681 36.1472 82.6022 36.0738 82.5307 36.0061C82.4759 35.96 82.4299 35.9044 82.3948 35.8419C82.3781 35.8082 82.3709 35.7705 82.3739 35.733C82.3739 35.7016 82.3829 35.6464 82.3889 35.5688C82.4381 35.4703 82.474 35.3986 82.4949 35.3523C82.5169 35.3056 82.5455 35.2624 82.5799 35.224L82.7576 35.0105L82.7934 34.9L82.8113 34.909L82.8531 34.9866ZM82.1277 33.994C82.0776 34.0614 82.0332 34.1328 81.9948 34.2074L82.0067 34.2418C81.9455 34.3492 81.9052 34.4254 81.8843 34.4716C81.8605 34.5206 81.8336 34.5679 81.8037 34.6134C81.7699 34.6641 81.725 34.7065 81.6724 34.7373C81.6338 34.7634 81.59 34.7807 81.544 34.7881C81.5113 34.7891 81.479 34.7956 81.4485 34.8075C81.4156 34.8194 81.3947 34.8224 81.3873 34.8075C81.3772 34.7986 81.3648 34.7928 81.3514 34.7911C81.3372 34.7256 81.3435 34.6573 81.3694 34.5955C81.4201 34.5269 81.4574 34.4731 81.4813 34.4343C81.5502 34.3556 81.6314 34.2886 81.7216 34.2358C81.8575 34.1492 81.9933 34.0656 82.1277 33.9925V33.994Z" fill="#8B1411"/>
<path d="M80.6529 52.2781L80.638 52.2915C80.5945 52.3032 80.55 52.3107 80.5051 52.3139C80.4325 52.3243 80.3589 52.3268 80.2857 52.3214C80.2338 52.3188 80.183 52.3056 80.1364 52.2826C80.0954 52.2611 80.0517 52.2451 80.0066 52.2348C79.9697 52.2276 79.9353 52.2111 79.9066 52.187C79.8886 52.1689 79.8648 52.1578 79.8394 52.1557C79.8259 52.154 79.813 52.1498 79.8012 52.1431C79.7894 52.1365 79.7791 52.1275 79.7707 52.1169C79.7483 52.0924 79.7173 52.0774 79.6841 52.0751C79.6428 52.067 79.606 52.0435 79.5811 52.0094C79.513 51.9385 79.4413 51.8713 79.3662 51.8079C79.3095 51.7109 79.2602 51.6347 79.2169 51.578C79.1758 51.5202 79.1482 51.4539 79.1363 51.384C79.1224 51.2981 79.1194 51.2108 79.1274 51.1242C79.1343 51.0204 79.1617 50.9189 79.208 50.8257C79.2563 50.7228 79.3175 50.6265 79.3901 50.5391C79.4558 50.4585 79.5282 50.3836 79.6065 50.3152C79.7966 50.2057 79.9882 50.0938 80.1812 49.9793C80.1663 50.0072 80.1484 50.043 80.1275 50.0868C80.1034 50.1414 80.0874 50.1993 80.0797 50.2585C80.0622 50.3475 80.0283 50.4326 79.9797 50.5092C79.9245 50.6063 79.8737 50.7003 79.8304 50.7928C79.7865 50.8862 79.764 50.9882 79.7647 51.0914C79.7663 51.2077 79.7814 51.3234 79.8095 51.4362C79.8312 51.538 79.8611 51.6378 79.8991 51.7347C79.9317 51.8104 79.9686 51.8842 80.0096 51.9557L80.1439 52.1049C80.1873 52.1473 80.2378 52.1817 80.2932 52.2064C80.3441 52.2352 80.3997 52.2549 80.4574 52.2647L80.6529 52.2781ZM84.4712 50.5988C84.4623 50.6645 84.4578 50.7137 84.4563 50.7481C84.455 50.7803 84.4423 50.8109 84.4205 50.8346C84.3981 50.86 84.3653 50.9018 84.319 50.9615L84.1384 51.0451C84.1518 51.163 84.1652 51.2601 84.1787 51.3347C84.1922 51.4085 84.1982 51.4836 84.1966 51.5586C84.1961 51.6348 84.1798 51.71 84.1488 51.7795C84.113 51.8573 84.0623 51.9272 83.9996 51.9855C83.9582 52.0227 83.9188 52.062 83.8816 52.1034C83.7861 52.1034 83.7159 52.1154 83.6682 52.1228C83.6004 52.1282 83.5322 52.1216 83.4667 52.1034C83.382 52.0829 83.3003 52.0518 83.2233 52.0109C83.1708 51.9837 83.1208 51.9517 83.0741 51.9154C83.0487 51.893 83.0144 51.8631 82.9681 51.8288C82.883 51.7258 82.8188 51.6422 82.7696 51.578C82.7203 51.5138 82.6203 51.3183 82.4456 50.9899C82.4229 50.9958 82.4012 51.0054 82.3815 51.0182C82.3534 51.0354 82.3226 51.0475 82.2904 51.0541C82.2306 51.0644 82.1695 51.0644 82.1098 51.0541C82.021 51.0418 81.9347 51.015 81.8545 50.975C81.6451 50.8606 81.4423 50.7345 81.247 50.5973C81.0619 50.4838 80.8867 50.3549 80.7231 50.2122C80.6853 50.1646 80.6328 50.131 80.5738 50.1166C80.4718 50.0768 80.3774 50.0198 80.2947 49.948C80.198 49.8706 80.0946 49.8022 79.9857 49.7435C79.9202 49.7124 79.8586 49.6738 79.8021 49.6285C79.7588 49.5912 79.6528 49.5136 79.5035 49.3987L79.4199 49.2852C79.4023 49.2653 79.3918 49.2401 79.3901 49.2136C79.3901 49.1912 79.3901 49.1568 79.3901 49.1106L79.4214 49.1255C79.471 49.1322 79.5212 49.1322 79.5707 49.1255C79.6402 49.118 79.7102 49.118 79.7797 49.1255C79.8158 49.1275 79.8507 49.1389 79.8812 49.1583C79.8991 49.1733 79.911 49.1792 79.9185 49.1777L79.9513 49.1688L79.9648 49.1971L80.3066 49.4464C80.2845 49.444 80.2622 49.4476 80.242 49.4568C80.2218 49.466 80.2044 49.4805 80.1917 49.4987C80.2648 49.5539 80.329 49.6061 80.3872 49.6554C80.4454 49.7047 80.7246 49.8853 81.2306 50.1943C81.7366 50.5033 82.0083 50.663 82.0456 50.6764L82.1784 50.7212C82.1038 50.5719 82.0516 50.4719 82.0187 50.4062C81.9884 50.3484 81.9663 50.2866 81.953 50.2226C81.9411 50.1659 81.9187 50.0734 81.8859 49.9644L82.0575 49.8584C82.1115 49.8288 82.1686 49.8053 82.2277 49.7883C82.3033 49.7629 82.385 49.7629 82.4606 49.7883C82.5492 49.8126 82.6435 49.8057 82.7278 49.7689C82.8179 49.7314 82.9156 49.716 83.0129 49.7241C83.0704 49.7313 83.1285 49.7313 83.186 49.7241C83.2189 49.7169 83.2524 49.7124 83.286 49.7106L83.1726 49.5778L82.4262 48.9165C82.2926 48.7993 82.152 48.6901 82.0053 48.5896C81.856 48.4836 81.6799 48.3762 81.4873 48.2657C81.3632 48.1903 81.2351 48.1216 81.1037 48.0597C81.0395 48.0328 80.9544 48.0015 80.8529 47.9642L80.8171 47.991C80.6818 47.9595 80.5486 47.9191 80.4185 47.8701C80.335 47.8358 80.2424 47.803 80.1424 47.7731C80.0668 47.7515 79.9934 47.723 79.923 47.688C79.8734 47.6613 79.8181 47.647 79.7618 47.6462L79.7424 47.6089L79.7722 47.5746L79.7304 47.5373L79.6498 47.5567L79.6229 47.5134C79.7227 47.3996 79.8093 47.2749 79.8812 47.1417L80.0304 47.0491C80.0782 47.0193 80.1155 46.9939 80.1394 46.9775L80.1857 46.8939C80.2211 46.8833 80.256 46.8708 80.2902 46.8566C80.312 46.8455 80.3351 46.837 80.3588 46.8312C80.3721 46.8269 80.3862 46.8261 80.3999 46.829C80.4135 46.8319 80.4261 46.8383 80.4365 46.8476C80.4494 46.8583 80.4647 46.8656 80.4811 46.869C80.4975 46.8723 80.5144 46.8717 80.5305 46.867C80.5708 46.8596 80.6663 46.8491 80.8156 46.8372C80.9431 46.8255 81.0712 46.8206 81.1992 46.8222C81.2679 46.8209 81.3365 46.8274 81.4037 46.8417C81.4377 46.8537 81.4737 46.8593 81.5097 46.8581C81.5923 46.8608 81.6746 46.8693 81.756 46.8834C81.9115 46.9074 82.0652 46.9423 82.2158 46.9879C82.3979 47.0417 82.774 47.1701 83.3472 47.376L83.4174 47.2163L83.4756 47.1835L83.4965 47.0566C83.5299 47.0418 83.5644 47.0294 83.5995 47.0193C83.6221 47.0118 83.6426 46.999 83.6592 46.982C83.7022 46.948 83.7481 46.918 83.7965 46.8924C83.8682 46.8536 83.9145 46.8282 83.9458 46.8178C83.9758 46.8058 84.0076 46.7987 84.0399 46.7969C84.0566 46.8201 84.0793 46.8383 84.1056 46.8496C84.1319 46.8609 84.1608 46.8649 84.1891 46.8611V46.9103H84.1533C84.1234 46.9461 84.1011 46.976 84.0846 46.9984C84.0676 47.0427 84.0644 47.0911 84.0757 47.1372C84.0887 47.2206 84.1112 47.3023 84.1428 47.3805C84.1787 47.4746 84.21 47.5641 84.2369 47.6507C84.2517 47.7071 84.2727 47.7617 84.2996 47.8134C84.3063 47.8206 84.3115 47.829 84.3149 47.8383C84.3182 47.8475 84.3196 47.8573 84.319 47.8671C84.3162 47.8722 84.3148 47.8778 84.3148 47.8836C84.3148 47.8893 84.3162 47.8949 84.319 47.9C84.326 47.9074 84.3315 47.916 84.3354 47.9254C84.3122 47.9558 84.2972 47.9919 84.2921 48.0299C84.2839 48.0725 84.2724 48.1144 84.2578 48.1552C84.2439 48.1926 84.2329 48.2311 84.2249 48.2702C84.2113 48.3243 84.1933 48.3772 84.1712 48.4284C84.1414 48.4553 84.1175 48.4777 84.1011 48.4956C84.0555 48.5207 84.0037 48.5321 83.9518 48.5284C83.8487 48.5269 83.747 48.504 83.6532 48.4612C83.522 48.4076 83.3956 48.3426 83.2756 48.2672C83.1475 48.1888 83.0143 48.119 82.877 48.0582C82.7373 47.9975 82.5943 47.9447 82.4486 47.9C82.3144 47.8611 82.1835 47.8112 82.0575 47.7507C81.9879 47.7145 81.9161 47.6826 81.8426 47.6552C81.8053 47.6447 81.7485 47.6328 81.6739 47.6194L82.3591 48.2881L83.0412 49.0568L83.5398 49.7883C83.618 49.8189 83.6943 49.8542 83.7682 49.8942C83.8201 49.9248 83.8699 49.9587 83.9174 49.9957C83.9801 50.042 84.1324 50.1883 84.3772 50.4346L84.4712 50.5988ZM83.5905 50.3182L83.4487 49.9793C83.4104 49.9649 83.371 49.9534 83.3308 49.945C83.2769 49.9376 83.2225 49.9351 83.1681 49.9375C83.114 49.9365 83.0599 49.9415 83.0069 49.9524L82.8681 49.9883C83.0321 50.1184 83.2116 50.2277 83.4025 50.3137C83.4517 50.3137 83.5114 50.3226 83.5831 50.3256L83.5905 50.3182ZM83.7995 51.484L83.7413 51.0362C83.4408 50.9231 83.1506 50.7842 82.8741 50.6212C82.9699 50.7943 83.0787 50.96 83.1995 51.1168C83.3034 51.1976 83.403 51.2838 83.498 51.375C83.5364 51.4168 83.58 51.4534 83.6279 51.484L83.7876 51.5691L83.798 51.484H83.7995Z" fill="#8B1411"/>
<path d="M50.4944 27.532V34.9134C50.4944 34.9134 42.8517 34.479 41.6366 35.5224C40.5082 36.3031 47.2821 37.0853 53.535 35.5224C59.6999 33.9581 65.9528 31.3533 65.9528 31.3533V36.4778C65.9528 36.4778 58.137 39.7766 49.5331 40.6454C40.9291 41.5141 33.5611 40.8185 30.9489 41.5141C30.5145 41.4276 29.9936 41.341 29.9936 39.7766C29.907 36.8241 29.9936 36.13 29.9936 36.13C29.9936 36.13 43.3771 29.4426 50.4944 27.532ZM43.807 43.7726C43.807 43.7726 56.6607 44.0323 65.3453 39.7766C65.9528 39.5169 65.8662 44.8145 65.8662 44.8145C65.8662 44.8145 54.8366 50.1987 43.807 48.3746V43.7726ZM43.807 52.4572C43.807 52.4572 54.9232 52.89 65.8662 48.4612L66.0394 53.0647C66.0394 53.0647 57.531 58.7967 43.807 57.0592V52.4572ZM31.5669 60.5327C31.5669 60.5327 41.6411 59.6639 50.8466 59.8386C60.0521 60.0132 65.8707 56.277 65.8707 56.277L66.0394 61.1402C66.0394 61.1402 57.7892 64.7884 51.1019 64.7018C44.4146 64.6152 31.649 65.4825 31.649 65.4825V60.5327H31.5669Z" fill="white"/>
<path d="M38.4601 80.2574C38.464 80.2096 38.4794 80.1636 38.5049 80.123C38.5417 80.0622 38.5858 80.006 38.6362 79.9558C38.6888 79.9001 38.7517 79.855 38.8213 79.823C38.8616 79.8033 38.9065 79.795 38.9512 79.7991L39.0616 79.8185C39.1178 79.8214 39.1709 79.8448 39.2109 79.8842C39.2898 79.9756 39.358 80.0757 39.4139 80.1827C39.4936 80.3255 39.5496 80.4803 39.5796 80.641C39.608 80.7903 39.6334 81.0007 39.6557 81.259C39.6781 81.5172 39.6886 81.7381 39.6886 81.9158C39.6909 81.9831 39.6879 82.0505 39.6796 82.1173C39.6252 82.3948 39.5499 82.6677 39.4542 82.9338C39.4118 83.0165 39.3528 83.0896 39.2811 83.1487C39.2271 83.1964 39.1589 83.2248 39.087 83.2293C39.0346 83.2326 38.9821 83.2254 38.9325 83.2082C38.8829 83.191 38.8372 83.1641 38.7981 83.1291C38.7589 83.0941 38.7271 83.0517 38.7044 83.0044C38.6818 82.957 38.6687 82.9056 38.6661 82.8532C38.6473 82.7457 38.6378 82.6369 38.6377 82.5278C38.6377 82.3067 38.6683 82.0866 38.7288 81.874C38.7601 81.7486 38.7974 81.5754 38.8407 81.3381C38.884 81.1008 38.9079 80.941 38.9154 80.841C38.9467 80.4813 38.9631 80.2574 38.9631 80.1678C38.9666 80.1411 38.9666 80.114 38.9631 80.0872C38.9482 79.9857 38.9243 79.9379 38.893 79.9379C38.8616 79.9379 38.8586 79.9514 38.8392 79.9767C38.7752 80.0543 38.721 80.1396 38.678 80.2305C38.665 80.2616 38.6418 80.2874 38.6123 80.3037C38.5827 80.3199 38.5486 80.3257 38.5153 80.3201C38.4735 80.3141 38.4601 80.2962 38.4601 80.2574Z" fill="#8B1411"/>
<path d="M46.2849 83.0189C46.1829 83.1181 46.0667 83.2016 45.9401 83.2666C45.824 83.342 45.6913 83.3881 45.5535 83.401C45.3065 83.3995 45.0613 83.3597 44.8265 83.2831C44.7114 83.2488 44.6088 83.1814 44.5316 83.0893C44.4544 82.9972 44.4059 82.8845 44.3922 82.7651C44.3758 82.6785 44.3678 82.5905 44.3683 82.5024C44.3649 82.3295 44.3969 82.1579 44.4623 81.9978C44.5134 81.873 44.5748 81.7527 44.6459 81.6381L44.7609 81.456C44.8402 81.3381 44.9264 81.2249 45.0191 81.1171C45.0736 81.0541 45.1235 80.9873 45.1684 80.9171L45.1833 80.8932C45.0524 80.677 44.9736 80.4332 44.9534 80.1812C44.9485 80.0964 44.953 80.0113 44.9669 79.9275C44.9689 79.8854 44.9803 79.8443 45.0002 79.8071C45.0201 79.7699 45.0479 79.7376 45.0818 79.7125L45.1714 79.6558C45.2124 79.6291 45.2565 79.6075 45.3027 79.5916C45.3404 79.5773 45.3803 79.5697 45.4206 79.5692C45.4654 79.5697 45.5096 79.5794 45.5505 79.5976C45.6211 79.6253 45.6847 79.6681 45.7371 79.723C45.7725 79.7587 45.7942 79.8057 45.7983 79.8558C45.7983 79.8976 45.7804 79.9185 45.7416 79.9185C45.6809 79.9113 45.6232 79.8881 45.5744 79.8513C45.5299 79.8227 45.478 79.8076 45.4251 79.808C45.3711 79.8094 45.3189 79.8277 45.2759 79.8603C45.2353 79.8934 45.2026 79.9353 45.1803 79.9827C45.1541 80.0403 45.1413 80.1031 45.143 80.1663C45.1508 80.2303 45.1744 80.2913 45.2117 80.3439C45.2651 80.4292 45.3266 80.5092 45.3953 80.5828C45.4524 80.4893 45.52 80.4026 45.5968 80.3245L45.6565 80.2603C45.6804 80.2335 45.7013 80.2185 45.7207 80.2185C45.7655 80.2185 45.7878 80.2379 45.7878 80.2768C45.7787 80.3289 45.7512 80.3761 45.7102 80.4096C45.6755 80.4466 45.644 80.4866 45.6162 80.529C45.594 80.563 45.5741 80.5984 45.5565 80.635L45.5192 80.7067C45.6059 80.7931 45.7004 80.8716 45.8013 80.941L46.07 81.2276C46.2051 81.3682 46.312 81.5334 46.3849 81.7142C46.4132 81.8061 46.4322 81.9007 46.4417 81.9964C46.4569 82.0952 46.4664 82.1949 46.47 82.2949C46.4653 82.4237 46.4478 82.5517 46.4178 82.677C46.4032 82.8004 46.3575 82.918 46.2849 83.0189ZM45.7878 82.0874C45.7841 81.9612 45.7707 81.8354 45.7475 81.7112C45.7329 81.6388 45.7078 81.5689 45.6729 81.5038C45.6315 81.4378 45.5866 81.374 45.5386 81.3127C45.5105 81.2759 45.4785 81.2424 45.443 81.2127L45.2863 81.0365L45.137 81.2276C45.0823 81.3019 45.0325 81.3797 44.9878 81.4605C44.9198 81.5807 44.8581 81.7042 44.8027 81.8307C44.7571 81.9243 44.7293 82.0255 44.7206 82.1292V82.2785C44.7154 82.3811 44.7349 82.4834 44.7773 82.577C44.8146 82.6487 44.8982 82.6845 45.0251 82.6845C45.2159 82.6914 45.4047 82.6443 45.5699 82.5487C45.6451 82.4992 45.7053 82.43 45.7437 82.3487C45.7821 82.2673 45.7974 82.1769 45.7878 82.0874Z" fill="#8B1411"/>
<path d="M51.6242 79.7468C51.6776 79.7145 51.7335 79.6865 51.7914 79.6632C51.8389 79.6444 51.8896 79.6353 51.9407 79.6364H52.075C52.1911 79.6251 52.3082 79.6438 52.4151 79.6905C52.5219 79.7373 52.615 79.8106 52.6856 79.9036C52.7748 80.0365 52.8428 80.1825 52.8871 80.3364C52.9241 80.4436 52.9482 80.5549 52.9587 80.6678V80.7634C52.9677 80.9126 52.9722 80.9932 52.9722 81.0216C52.9729 81.0791 52.9684 81.1366 52.9587 81.1933C52.9393 81.2634 52.893 81.3978 52.8169 81.5963C52.7408 81.7948 52.69 81.9307 52.6572 82.0008C52.6244 82.071 52.5691 82.2158 52.4855 82.4352C52.4285 82.5728 52.3787 82.7133 52.3363 82.8561C52.312 82.9275 52.2756 82.9941 52.2288 83.0532C52.1706 83.1382 52.1362 83.186 52.1258 83.2024C52.0875 83.2487 52.054 83.2987 52.0258 83.3517C52.0258 83.3741 51.9944 83.395 51.9526 83.4114C51.9183 83.4272 51.8814 83.4363 51.8437 83.4383C51.8241 83.4382 51.8051 83.4313 51.7899 83.4189C51.7806 83.4118 51.7732 83.4025 51.7685 83.3918C51.7638 83.3811 51.762 83.3693 51.7631 83.3577C51.7685 83.3035 51.7886 83.2519 51.8213 83.2084C51.891 83.0915 51.9523 82.9698 52.0049 82.8442C52.0735 82.686 52.1228 82.5606 52.1541 82.468C52.1855 82.3755 52.2333 82.274 52.284 82.1531C52.3174 82.0851 52.3459 82.0147 52.3691 81.9426C52.3766 81.9217 52.396 81.8769 52.4273 81.8097C52.4363 81.7844 52.4721 81.6963 52.5348 81.547C52.5884 81.4242 52.6289 81.2962 52.6557 81.1649C52.6772 81.043 52.6902 80.9198 52.6945 80.7962C52.6949 80.6797 52.6772 80.5639 52.6423 80.4529C52.6072 80.3293 52.5571 80.2105 52.493 80.0991C52.473 80.0633 52.4421 80.0347 52.4048 80.0176C52.3675 80.0004 52.3258 79.9955 52.2855 80.0036C52.1549 80.0269 52.0307 80.0778 51.9213 80.1528C51.8696 80.183 51.8271 80.2268 51.7987 80.2794C51.7703 80.3321 51.7569 80.3916 51.7601 80.4514C51.7677 80.6158 51.7902 80.7791 51.8272 80.9395C51.8485 81.0535 51.9112 81.1556 52.0034 81.2261C52.0469 81.2568 52.0814 81.2985 52.1034 81.347C52.1244 81.394 52.1356 81.4448 52.1362 81.4963C52.1375 81.5528 52.1247 81.6087 52.0989 81.659C52.0885 81.6806 52.0737 81.6999 52.0554 81.7156C52.0372 81.7312 52.0159 81.743 51.9929 81.75C51.9095 81.7734 51.8227 81.783 51.7362 81.7784C51.6168 81.7795 51.4978 81.7645 51.3824 81.7336C51.3378 81.7245 51.2954 81.7066 51.2578 81.6809C51.2201 81.6553 51.1879 81.6225 51.163 81.5843C51.099 81.4659 51.0513 81.3394 51.0212 81.2082C50.9819 81.062 50.9603 80.9117 50.957 80.7604C50.9552 80.6906 50.9648 80.621 50.9854 80.5544C51.0432 80.3956 51.1214 80.2451 51.2182 80.1066C51.2895 79.9838 51.3881 79.8791 51.5063 79.8006L51.5586 79.7752C51.5775 79.7712 51.5994 79.7617 51.6242 79.7468Z" fill="#8B1411"/>
<path d="M59.4669 83.0189C59.3658 83.1185 59.25 83.2021 59.1236 83.2666C59.0074 83.342 58.8748 83.3881 58.737 83.401C58.49 83.3995 58.2448 83.3597 58.01 83.2831C57.8948 83.2488 57.7923 83.1814 57.7151 83.0893C57.6378 82.9972 57.5894 82.8845 57.5756 82.7651C57.5593 82.6785 57.5513 82.5905 57.5518 82.5024C57.5484 82.3295 57.5804 82.1579 57.6458 81.9978C57.6969 81.873 57.7583 81.7527 57.8294 81.6381L57.9443 81.456C58.0236 81.3384 58.1093 81.2253 58.2011 81.1171C58.2559 81.0544 58.3058 80.9876 58.3504 80.9171L58.3653 80.8932C58.2343 80.677 58.1556 80.4332 58.1354 80.1812C58.1305 80.0964 58.135 80.0113 58.1488 79.9275C58.1509 79.8854 58.1623 79.8443 58.1822 79.8071C58.2021 79.7699 58.2299 79.7376 58.2638 79.7125L58.3518 79.6558C58.3931 79.6296 58.4372 79.6081 58.4832 79.5916C58.5214 79.5774 58.5618 79.5698 58.6026 79.5692C58.6474 79.5697 58.6916 79.5794 58.7325 79.5976C58.803 79.6253 58.8667 79.6681 58.9191 79.723C58.9545 79.7587 58.9762 79.8057 58.9803 79.8558C58.9803 79.8976 58.9624 79.9185 58.9236 79.9185C58.8629 79.9113 58.8052 79.8881 58.7564 79.8513C58.7119 79.8227 58.66 79.8076 58.6071 79.808C58.5531 79.8094 58.5009 79.8277 58.4578 79.8603C58.4172 79.8934 58.3846 79.9353 58.3623 79.9827C58.3361 80.0403 58.3233 80.1031 58.325 80.1663C58.3328 80.2303 58.3564 80.2913 58.3936 80.3439C58.4471 80.4292 58.5086 80.5092 58.5772 80.5828C58.6343 80.4893 58.7019 80.4026 58.7788 80.3245L58.8385 80.2603C58.8624 80.2335 58.8833 80.2185 58.9027 80.2185C58.9474 80.2185 58.9698 80.2379 58.9698 80.2768C58.9607 80.3289 58.9332 80.3761 58.8922 80.4096C58.8575 80.447 58.8256 80.4869 58.7967 80.529C58.7758 80.5649 58.7549 80.5992 58.7385 80.635L58.7011 80.7067C58.7879 80.7931 58.8823 80.8716 58.9833 80.941L59.2505 81.2276C59.3866 81.3677 59.4941 81.533 59.5669 81.7142C59.5952 81.8061 59.6142 81.9007 59.6236 81.9964C59.6389 82.0952 59.6484 82.1949 59.652 82.2949C59.6473 82.4237 59.6298 82.5517 59.5997 82.677C59.586 82.8006 59.5402 82.9184 59.4669 83.0189ZM58.9713 82.0874C58.968 81.9611 58.954 81.8352 58.9295 81.7112C58.916 81.6387 58.8913 81.5687 58.8564 81.5038C58.815 81.4378 58.7701 81.374 58.722 81.3127C58.694 81.2759 58.662 81.2424 58.6265 81.2127L58.4698 81.0365L58.3205 81.2276C58.2658 81.3019 58.2159 81.3797 58.1712 81.4605C58.1033 81.5807 58.0415 81.7042 57.9861 81.8307C57.9406 81.9243 57.9128 82.0255 57.904 82.1292V82.2785C57.8989 82.3811 57.9183 82.4834 57.9608 82.577C57.9981 82.6487 58.0817 82.6845 58.2085 82.6845C58.3993 82.6914 58.5882 82.6443 58.7534 82.5487C58.8286 82.4992 58.8887 82.43 58.9272 82.3487C58.9656 82.2673 58.9809 82.1769 58.9713 82.0874Z" fill="#8B1411"/>
<path d="M48.005 87.3333C26.3103 87.3333 8.66663 69.6876 8.66663 48.005C8.66663 26.3224 26.3103 8.66663 48.005 8.66663C69.6997 8.66663 87.3333 26.3103 87.3333 48.005C87.3333 69.6997 69.6876 87.3333 48.005 87.3333ZM48.005 9.47643C26.7577 9.47643 9.47643 26.7577 9.47643 48.005C9.47643 69.2523 26.7577 86.5235 48.005 86.5235C69.2523 86.5235 86.5235 69.2422 86.5235 48.005C86.5235 26.7678 69.2422 9.47643 48.005 9.47643Z" fill="#8B1310"/>
</svg>
