<svg id="图层_1" data-name="图层 1" xmlns="http://www.w3.org/2000/svg" viewBox="0 0 96 96"><defs><style>.cls-1{fill:#25668f;}.cls-2{fill:#c8c9c9;}</style></defs><path class="cls-1" d="M56.35,56.15a6.32,6.32,0,0,1,6.43,6.54,7.74,7.74,0,0,1-7.71,7.51,6.38,6.38,0,0,1-6.38-6.5A7.71,7.71,0,0,1,56.35,56.15Z"/><path class="cls-1" d="M62.81,46.56a7,7,0,0,1-9.87,5.83,5.39,5.39,0,0,1-2.8-7.09,7.2,7.2,0,0,1,9.71-3.59A5.14,5.14,0,0,1,62.81,46.56Z"/><path class="cls-1" d="M47.34,47.51a6.79,6.79,0,0,1-8.51,6.26,5,5,0,0,1-3.56-5.07,6.85,6.85,0,0,1,8.08-6.16A5,5,0,0,1,47.34,47.51Z"/><path class="cls-1" d="M57.27,38.54a7,7,0,0,1-3.61-.84,3.72,3.72,0,0,1-1-6.08,7.46,7.46,0,0,1,9.12-.92,3.51,3.51,0,0,1,.93,5.08A6.69,6.69,0,0,1,57.27,38.54Z"/><path class="cls-1" d="M35.75,35.88c0,3.2-3.81,6.79-7,6.59-2.06-.13-3.13-1.71-2.61-3.88A8.1,8.1,0,0,1,32.28,33C34.4,32.75,35.76,33.87,35.75,35.88Z"/><path class="cls-1" d="M57.23,28.08a7.72,7.72,0,0,1-3.63-.77c-1.88-1-2.08-2.74-.52-4.15a8.7,8.7,0,0,1,9-.87,2.25,2.25,0,0,1,.47,3.81A8,8,0,0,1,57.23,28.08Z"/><path class="cls-1" d="M22.33,49.33a9.65,9.65,0,0,1-2.66,6.27,2.39,2.39,0,0,1-2.43.76,2.26,2.26,0,0,1-1.42-2,9,9,0,0,1,2.11-7.55,2.47,2.47,0,0,1,2.71-1.12c1.11.34,1.39,1.35,1.57,2.36A12,12,0,0,1,22.33,49.33Z"/><path class="cls-1" d="M21.16,62.17a7.34,7.34,0,0,1-1.57,4.54c-1.37,1.66-3.18,1.38-3.83-.65a6.56,6.56,0,0,1,1.47-6.73c1.29-1.42,2.86-1,3.56.77A5.39,5.39,0,0,1,21.16,62.17Z"/><path class="cls-1" d="M25.05,37.62a9.66,9.66,0,0,1-4,6.78,1.56,1.56,0,0,1-1.77.24A1.62,1.62,0,0,1,18.63,43a9.58,9.58,0,0,1,3.73-6.82,1.88,1.88,0,0,1,2-.41C25.12,36.1,25,36.89,25.05,37.62Z"/><path class="cls-1" d="M27.89,28.05a1.43,1.43,0,0,1,.84,1.71,7.37,7.37,0,0,1-4.54,5.15,1.49,1.49,0,0,1-1.68-.19,1.56,1.56,0,0,1-.28-1.66,8,8,0,0,1,4.09-4.78A1.8,1.8,0,0,1,27.89,28.05Z"/><path class="cls-1" d="M57.43,20.3a5.73,5.73,0,0,1-2.85-.49c-1.08-.53-1.23-1.53-.15-2a10.84,10.84,0,0,1,7-.45c1.18.46,1.18,1.38.08,2.06A7.05,7.05,0,0,1,57.43,20.3Z"/><path class="cls-1" d="M58.37,13.32a6.48,6.48,0,0,1,2.72.43c.32.14.6.32.62.71a.79.79,0,0,1-.55.76,8.76,8.76,0,0,1-6.27.31.77.77,0,0,1-.62-.7c0-.39.26-.6.55-.76A7.26,7.26,0,0,1,58.37,13.32Z"/><path class="cls-2" d="M40.19,83a5.29,5.29,0,0,1-2.29-1.71A5.6,5.6,0,0,1,37.17,75,5.43,5.43,0,0,1,42,71.58c2.87-.15,4.72,1.08,5.54,3.5A6.06,6.06,0,0,1,45.16,82a5.59,5.59,0,0,1-1.79.91A6.45,6.45,0,0,1,40.19,83Z"/><path class="cls-2" d="M9.72,50.48c.15-.27.29-.55.65-.53a.56.56,0,0,1,.54.61,23.57,23.57,0,0,1-.83,5.8c-.13.47-.82.75-1,0A21.85,21.85,0,0,1,9.72,50.48Z"/><path class="cls-2" d="M34.37,63.61a7.49,7.49,0,0,1,6-7.53,5.73,5.73,0,0,1,5.15,2.23,7.57,7.57,0,0,1-5.22,11.45,5.72,5.72,0,0,1-5.14-2.94A6.7,6.7,0,0,1,34.37,63.61Z"/><path class="cls-2" d="M22.05,63.73a7,7,0,0,1,2.65-6,4.59,4.59,0,0,1,6.78.91,7.32,7.32,0,0,1-1.48,10c-2.85,2.15-6.74.6-7.7-3A6.23,6.23,0,0,1,22.05,63.73Z"/><path class="cls-2" d="M72.75,41a5.13,5.13,0,0,1,5.15,5,5.8,5.8,0,0,1-3.05,5.34,6,6,0,0,1-6.44.26,5.32,5.32,0,0,1-1-8.41A6.79,6.79,0,0,1,72.75,41Z"/><path class="cls-2" d="M45.77,17.6a2.35,2.35,0,0,1-.54-.07c-.92-.34-1-.75-.32-1.41a10.27,10.27,0,0,1,3.75-1.67,9.23,9.23,0,0,1,3.62-.23c1,.41,1.11.86.3,1.52a9,9,0,0,1-2.91,1.36A22.05,22.05,0,0,1,45.77,17.6Z"/><path class="cls-2" d="M44.46,22.49c-.91-.21-2-.37-2.16-1.46s.66-1.7,1.47-2.26a6.79,6.79,0,0,1,2-1c3.5-.83,5.8.05,6,1S51.2,20.42,50.51,21a7.58,7.58,0,0,1-2.81,1.29A10.55,10.55,0,0,1,44.46,22.49Z"/><path class="cls-2" d="M48.43,23A2,2,0,0,1,49.51,26a6.2,6.2,0,0,1-3.35,2.79,6.69,6.69,0,0,1-5,.34,2.05,2.05,0,0,1-1.08-3.24A6.9,6.9,0,0,1,44.43,23,6.64,6.64,0,0,1,48.43,23Z"/><path class="cls-2" d="M23.19,50.68a7.74,7.74,0,0,1,3.2-6.2c3-2.17,6.09-.91,6.94,2.71.72,3.05-1.53,7-4.38,8.18s-5.58-1-5.76-3.91C23.18,51.2,23.19,50.94,23.19,50.68Z"/><path class="cls-2" d="M48.46,34a6,6,0,0,1-2.15,3.71,7.78,7.78,0,0,1-4.57,2.13c-2.64.26-4.91-1.46-3.7-4.72A7.63,7.63,0,0,1,46,30.56C47.56,30.81,48.48,32,48.46,34Z"/><path class="cls-2" d="M23.86,75.63c0-3.35,3.06-5.53,5.88-4.22a6,6,0,0,1,2.92,6.51,4.13,4.13,0,0,1-2.85,3.25,4.45,4.45,0,0,1-5.06-2.27A5.8,5.8,0,0,1,23.86,75.63Z"/><path class="cls-2" d="M70.18,38.56A4.31,4.31,0,0,1,66,35.27a4.78,4.78,0,0,1,2.6-5,5.65,5.65,0,0,1,4.61-.44A4.08,4.08,0,0,1,75,36.46,5.69,5.69,0,0,1,70.18,38.56Z"/><path class="cls-2" d="M86.94,36.51c0,2-1,3-2.86,3.07-2.77.06-5.66-2.37-5.87-5a2.74,2.74,0,0,1,2.93-3.11,6.22,6.22,0,0,1,5.71,4.34A4.28,4.28,0,0,1,86.94,36.51Z"/><path class="cls-2" d="M38.67,25.55a2.57,2.57,0,0,1-.62,2.77,8.63,8.63,0,0,1-6.75,3.75c-1.7.07-2.43-1.07-1.74-2.64a8.23,8.23,0,0,1,4.75-4.27,10.46,10.46,0,0,1,1.86-.66A2.32,2.32,0,0,1,38.67,25.55Z"/><path class="cls-2" d="M70.08,21.39a5.78,5.78,0,0,1,3.15.73c2,1.06,2.2,2.85.51,4.28s-5.88,1.52-7.57-.16c-1.36-1.34-1.22-3,.44-4A5.81,5.81,0,0,1,70.08,21.39Z"/><path class="cls-2" d="M21.85,76.34A4.08,4.08,0,0,1,21.53,78a2.11,2.11,0,0,1-3.29,1,6.77,6.77,0,0,1-2.86-4.46,5,5,0,0,1,.08-2.94,2.08,2.08,0,0,1,3.09-1.32,5.77,5.77,0,0,1,2.61,3.06A7.06,7.06,0,0,1,21.85,76.34Z"/><path class="cls-2" d="M36.1,20.85A6,6,0,0,0,33.32,23a1,1,0,0,0,.73,1.52,21.13,21.13,0,0,0,3.63-.6,8.28,8.28,0,0,0,3.65-2.44,1,1,0,0,0-.47-1.65C40.14,19.49,37.52,20.25,36.1,20.85Z"/><path class="cls-2" d="M40.42,19.39a10.3,10.3,0,0,0,2.85-1.48c.4-.29.8-.69.63-1.2s-.7-.46-1.15-.46a11.5,11.5,0,0,0-5.93,2c-.47.29-1.13.68-1,1.34s.69.68,1.38.68A21.37,21.37,0,0,0,40.42,19.39Z"/><path class="cls-2" d="M82.36,28.73a6.14,6.14,0,0,1-4.3-2.68,2.28,2.28,0,0,1-.31-2.4,2.21,2.21,0,0,1,2.3-1,6,6,0,0,1,4.78,2.67,2.1,2.1,0,0,1,.29,2.4C84.69,28.42,83.92,28.76,82.36,28.73Z"/><path class="cls-2" d="M67.41,16.24a6.31,6.31,0,0,1,4.31,1.46c.89.86.76,1.51-.32,2.07-1.91,1-5.42.1-6.62-1-.92-.82-.78-1.59.34-2.14A4.49,4.49,0,0,1,67.41,16.24Z"/><path class="cls-2" d="M14.24,62.76a6.94,6.94,0,0,1-.6,3.07,1.36,1.36,0,0,1-1.13,1,1.25,1.25,0,0,1-1.19-.86,7.38,7.38,0,0,1-.06-6.23,1.16,1.16,0,0,1,1.07-.84,1.27,1.27,0,0,1,1.2.84A5.53,5.53,0,0,1,14.24,62.76Z"/><path class="cls-2" d="M14.2,54.87c-.48,1.23-.95,1.91-1.57,1.8s-.64-.7-.71-1.16a10.47,10.47,0,0,1,1.32-6.61.84.84,0,0,1,.91-.51c.41.06.68.7.69,1A25.36,25.36,0,0,1,14.2,54.87Z"/><path class="cls-2" d="M26.31,27.87A.81.81,0,0,1,26,26.74,8.24,8.24,0,0,1,31,23.2c.35-.1.86-.22,1.13.2a1.2,1.2,0,0,1-.28,1.43,13.51,13.51,0,0,1-3.92,2.81A3.36,3.36,0,0,1,26.31,27.87Z"/><path class="cls-2" d="M17.82,40.76a15.29,15.29,0,0,1-2.24,4.44c-.26.33-.88.87-1.21.6a.85.85,0,0,1-.27-.91,8.88,8.88,0,0,1,2.54-4.84c.25-.22.49-.49.87-.29S17.82,40.23,17.82,40.76Z"/><path class="cls-2" d="M10.63,46.72a8.62,8.62,0,0,1,1.53-4.14c.2-.27.45-.54.84-.38s.35.45.35.76a8.6,8.6,0,0,1-1.54,4.57c-.18.29-.51.59-.82.47C10.44,47.79,10.74,47.22,10.63,46.72Z"/><path class="cls-2" d="M31.2,22.85c-.22.11-.4-.09-.27-.34a20.2,20.2,0,0,1,2.63-3.16,23.38,23.38,0,0,1,3.63-2.81.32.32,0,0,1,.41,0c.15.2-2.84,3.11-3.13,3.41S31.59,22.64,31.2,22.85Z"/><path class="cls-2" d="M16.71,36.07a30.64,30.64,0,0,1-2.4,4.52c-.17.22-.58.42-.74.35s-.13-.56,0-.77A30.86,30.86,0,0,1,16,35.62c.14-.19.31-.45.63-.3C16.78,35.39,16.78,35.83,16.71,36.07Z"/><path class="cls-2" d="M17.53,38.09c-.23-.07-.26-.41-.18-.65a11.43,11.43,0,0,1,2.42-3.82c.35-.39.93-1.08,1.21-.93s-.09,1.14-.34,1.53a22.1,22.1,0,0,1-2.46,3.42C18,37.82,17.77,38.15,17.53,38.09Z"/><path class="cls-2" d="M47.78,14c-.17,0-.41,0-.5-.14s.06-.33.21-.38c1.76-.68,5.76-.91,5.76-.32,0,.4-1,.52-1.41.61A13,13,0,0,1,47.78,14Z"/><path class="cls-2" d="M40.11,15.78c0-.24,1.43-.61,2.67-.8,1.51-.23,2.79-.34,2.86-.14s-.2.37-.38.44C44.05,15.77,40.18,16.33,40.11,15.78Z"/><path class="cls-2" d="M20,30.17c-.13.29-.25.57-.39.83a12.3,12.3,0,0,1-2.08,2.83c-.13.13-.29.29-.47.15s-.11-.34,0-.51a11.32,11.32,0,0,1,2.26-3.38.5.5,0,0,1,.59-.18C19.94,30,20,30.09,20,30.17Z"/><path class="cls-2" d="M25.13,26.63a6.42,6.42,0,0,1-.7,1c-.73.89-1.36,1.58-2.11,2.45-.1.13-.36.5-.56.34s.21-.51.29-.63a18.93,18.93,0,0,1,2.74-3.19C25.08,26.33,25.22,26.43,25.13,26.63Z"/><path class="cls-2" d="M24.81,25.56c-.16,0-.15-.19,0-.29a21.53,21.53,0,0,1,2.87-2.61c.08-.05.22-.11.29-.07s0,.11-.05.26S25.66,25.3,24.81,25.56Z"/></svg>